<svg width="174" height="105" viewBox="0 0 174 105" fill="none" xmlns="http://www.w3.org/2000/svg">
<path d="M3.37005 54.9076L6.26882 44.0892L9.0816 44.8429C10.3283 45.1769 11.1906 45.7503 11.6685 46.563C12.1465 47.3758 12.2855 48.3406 12.0856 49.4576C12.0316 49.7413 11.9657 50.0494 11.8876 50.3819C11.8199 50.7171 11.746 51.0341 11.6659 51.3329C11.5859 51.6317 11.4914 51.9432 11.3824 52.2673C11.2838 52.5943 11.1869 52.8941 11.0917 53.1668C10.7166 54.2368 10.1138 55.0029 9.28326 55.465C8.46299 55.9299 7.42951 55.9953 6.18283 55.6612L3.37005 54.9076ZM4.9046 54.1261L6.48099 54.5485C7.38767 54.7914 8.11195 54.726 8.65383 54.3522C9.20602 53.9811 9.61379 53.4278 9.87714 52.6922C10.0019 52.3502 10.0974 52.0556 10.1637 51.8083C10.2403 51.5638 10.3186 51.2921 10.3986 50.9933C10.4787 50.6945 10.5467 50.4201 10.6026 50.1701C10.6689 49.9228 10.7335 49.6199 10.7965 49.2613C10.9362 48.4926 10.8597 47.8095 10.567 47.2121C10.2847 46.6174 9.68874 46.2037 8.7793 45.9711L7.20291 45.5487L4.9046 54.1261ZM12.844 57.4461L13.1587 56.2715L15.0133 56.7685L17.2826 48.2992L15.428 47.8023L15.7427 46.6277L20.7347 47.9653L20.4199 49.1399L18.5653 48.6429L16.296 57.1122L18.1506 57.6091L17.8359 58.7837L12.844 57.4461ZM20.1518 59.4042L26.0952 49.4016L27.9498 49.8986L28.1265 61.541L26.8128 61.189L26.748 51.6637L26.8438 50.8114C26.8501 50.7469 26.8223 50.7063 26.7605 50.6897C26.7089 50.6759 26.6698 50.6986 26.6429 50.7576L26.2843 51.5394L21.4655 59.7562L20.1518 59.4042ZM22.5953 56.9614L23.2418 55.9089L27.1982 56.969L27.2318 58.2037L22.5953 56.9614ZM24.031 50.0578L24.3333 48.9296L26.5125 49.5135L26.2102 50.6417L24.031 50.0578ZM30.9146 62.2881L33.8134 51.4697L34.8952 51.7596L36.1604 57.2999C36.1871 57.4064 36.2313 57.4679 36.2932 57.4845C36.3653 57.5038 36.4344 57.4726 36.5004 57.391L40.3662 53.2256L41.4481 53.5154L38.5493 64.3338L37.3129 64.0025L39.2013 56.9551L39.6167 56.0229C39.6463 55.9535 39.6382 55.9016 39.5922 55.8672C39.5565 55.8356 39.5018 55.8541 39.4282 55.9227L36.2157 59.319L35.443 59.1119L34.359 54.5644C34.3399 54.4709 34.3018 54.4276 34.2448 54.4344C34.1878 54.4412 34.1547 54.4821 34.1457 54.5569L34.0394 55.572L32.151 62.6194L30.9146 62.2881ZM45.6525 66.4359C45.0962 66.2868 44.6185 66.0705 44.2197 65.7869C43.8311 65.5061 43.5251 65.1646 43.3016 64.7624C43.1459 64.4777 43.0261 64.142 42.942 63.755C42.8608 63.3578 42.8487 62.8466 42.9057 62.2214C42.9731 61.5989 43.1366 60.8035 43.3961 59.835C43.6556 58.8665 43.9118 58.0958 44.1646 57.5231C44.4278 56.9531 44.6939 56.5164 44.9629 56.2131C45.2319 55.9097 45.5036 55.6788 45.7779 55.5204C46.1726 55.2838 46.6084 55.1411 47.0853 55.0922C47.5725 55.0461 48.0943 55.0975 48.6507 55.2466C49.2071 55.3957 49.6795 55.6106 50.0681 55.8914C50.467 56.175 50.7782 56.5179 51.0017 56.9201C51.1704 57.1972 51.2902 57.533 51.3612 57.9275C51.4425 58.3247 51.4494 58.8346 51.382 59.457C51.3249 60.0822 51.1666 60.879 50.9071 61.8475C50.6476 62.816 50.3863 63.5853 50.1231 64.1553C49.8703 64.728 49.6094 65.1661 49.3403 65.4694C49.0844 65.7653 48.8127 65.9962 48.5253 66.1621C48.1306 66.3987 47.6897 66.54 47.2025 66.5862C46.7256 66.6351 46.2089 66.585 45.6525 66.4359ZM45.9755 65.2304C46.738 65.4347 47.3702 65.3832 47.8721 65.076C48.3844 64.7716 48.755 64.2746 48.9839 63.585C49.1363 63.1399 49.2591 62.7642 49.3522 62.4579C49.4584 62.144 49.5543 61.8274 49.6398 61.508C49.7282 61.1783 49.8035 60.8561 49.8657 60.5415C49.941 60.2193 50.0225 59.8326 50.1103 59.3813C50.2568 58.6696 50.1844 58.0539 49.893 57.5341C49.6119 57.017 49.0901 56.6564 48.3277 56.4521C47.5653 56.2478 46.9279 56.2979 46.4157 56.6023C45.9137 56.9096 45.5483 57.408 45.3193 58.0975C45.1697 58.5323 45.0418 58.9066 44.9356 59.2205C44.8425 59.5268 44.7517 59.8448 44.6634 60.1745C44.5778 60.4939 44.4974 60.8147 44.4221 61.1369C44.3599 61.4515 44.2835 61.8396 44.1929 62.3012C44.0464 63.0129 44.1137 63.6272 44.3948 64.1443C44.6862 64.6641 45.2131 65.0261 45.9755 65.2304ZM52.8647 68.1696L55.7635 57.3512L56.8144 57.6328L59.0775 67.3C59.0994 67.3831 59.1388 67.4213 59.1959 67.4145C59.2557 67.3974 59.2901 67.3514 59.2991 67.2765L59.4065 66.1955L61.3736 58.8545L62.6099 59.1858L59.7112 70.0041L58.4748 69.6728L56.3038 60.5273C56.2875 60.4236 56.2456 60.3737 56.1783 60.3777C56.1212 60.3845 56.0868 60.4305 56.0751 60.5157L55.9604 61.5617L54.1011 68.5009L52.8647 68.1696ZM63.5756 71.0396L66.4744 60.2212L69.2872 60.9749C70.5338 61.309 71.3962 61.8823 71.8741 62.6951C72.352 63.5078 72.491 64.4726 72.2911 65.5896C72.2372 65.8733 72.1712 66.1814 72.0932 66.5139C72.0254 66.8491 71.9515 67.1661 71.8715 67.4649C71.7914 67.7637 71.6969 68.0752 71.588 68.3994C71.4893 68.7263 71.3924 69.0261 71.2973 69.2988C70.9222 70.3688 70.3194 71.1349 69.4888 71.597C68.6685 72.0619 67.6351 72.1273 66.3884 71.7933L63.5756 71.0396ZM65.1101 70.2581L66.6865 70.6805C67.5932 70.9235 68.3175 70.858 68.8594 70.4842C69.4116 70.1132 69.8193 69.5598 70.0827 68.8243C70.2075 68.4822 70.303 68.1876 70.3692 67.9403C70.4458 67.6958 70.5241 67.4241 70.6042 67.1253C70.6842 66.8266 70.7522 66.5521 70.8082 66.3021C70.8745 66.0548 70.9391 65.7519 71.002 65.3933C71.1417 64.6246 71.0653 63.9415 70.7726 63.3441C70.4902 62.7494 69.8943 62.3357 68.9849 62.1031L67.4085 61.6807L65.1101 70.2581ZM78.9151 75.1498L81.8139 64.3314L83.0966 64.6751L81.8087 69.4816L86.0434 70.6163L87.3312 65.8098L88.614 66.1535L85.7152 76.9719L84.4325 76.6282L85.7204 71.8217L81.4857 70.6871L80.1979 75.4935L78.9151 75.1498ZM88.6535 77.7592L94.5968 67.7566L96.4514 68.2535L96.6281 79.896L95.3145 79.544L95.2496 70.0186L95.3455 69.1664C95.3517 69.1018 95.3239 69.0613 95.2621 69.0447C95.2106 69.0309 95.1714 69.0535 95.1445 69.1126L94.786 69.8944L89.9671 78.1112L88.6535 77.7592ZM91.097 75.3164L91.7434 74.2638L95.6998 75.3239L95.7334 76.5587L91.097 75.3164ZM92.5327 68.4127L92.835 67.2845L95.0141 67.8684L94.7118 68.9966L92.5327 68.4127ZM99.4163 80.6431L102.315 69.8247L103.366 70.1063L105.629 79.7734C105.651 79.8566 105.69 79.8948 105.747 79.888C105.807 79.8709 105.842 79.8249 105.851 79.75L105.958 78.669L107.925 71.3279L109.162 71.6592L106.263 82.4776L105.026 82.1463L102.855 73.0008C102.839 72.897 102.797 72.8471 102.73 72.8512C102.673 72.858 102.638 72.904 102.627 72.9892L102.512 74.0351L100.653 80.9744L99.4163 80.6431ZM110.127 83.5131L113.026 72.6947L115.839 73.4484C117.085 73.7824 117.948 74.3558 118.426 75.1685C118.904 75.9813 119.043 76.9461 118.843 78.0631C118.789 78.3468 118.723 78.6549 118.645 78.9874C118.577 79.3226 118.503 79.6396 118.423 79.9384C118.343 80.2372 118.248 80.5487 118.14 80.8728C118.041 81.1998 117.944 81.4996 117.849 81.7722C117.474 82.8423 116.871 83.6084 116.04 84.0705C115.22 84.5354 114.187 84.6008 112.94 84.2667L110.127 83.5131ZM111.662 82.7316L113.238 83.154C114.145 83.3969 114.869 83.3315 115.411 82.9577C115.963 82.5866 116.371 82.0333 116.634 81.2977C116.759 80.9557 116.855 80.661 116.921 80.4138C116.997 80.1693 117.076 79.8976 117.156 79.5988C117.236 79.3 117.304 79.0256 117.36 78.7756C117.426 78.5283 117.491 78.2253 117.554 77.8668C117.693 77.0981 117.617 76.415 117.324 75.8175C117.042 75.2229 116.446 74.8092 115.536 74.5766L113.96 74.1542L111.662 82.7316ZM122.724 87.0541C122.127 86.894 121.575 86.6466 121.068 86.3121C120.564 85.9673 120.164 85.5841 119.869 85.1625L120.622 84.2049C120.882 84.5948 121.222 84.9343 121.641 85.2234C122.061 85.5125 122.507 85.7205 122.981 85.8475C123.713 86.0435 124.314 86.0058 124.784 85.7342C125.254 85.4627 125.568 85.0333 125.726 84.446C125.858 83.9515 125.84 83.4828 125.672 83.0401C125.503 82.5974 125.104 82.2531 124.474 82.007L123.753 81.731C123.193 81.5146 122.738 81.2326 122.39 80.8852C122.041 80.5378 121.812 80.1342 121.704 79.6744C121.598 79.2043 121.619 78.6911 121.768 78.1347C121.926 77.5474 122.209 77.0658 122.619 76.6897C123.032 76.3034 123.536 76.0518 124.13 75.935C124.738 75.8107 125.407 75.8466 126.139 76.0426C126.592 76.164 127.039 76.3501 127.48 76.6007C127.921 76.8514 128.311 77.1658 128.652 77.5441L127.975 78.5225C127.673 78.1655 127.335 77.8817 126.961 77.671C126.587 77.4603 126.214 77.3052 125.844 77.2058C125.102 77.007 124.484 77.0238 123.991 77.2562C123.512 77.481 123.2 77.8612 123.056 78.397C122.91 78.9431 122.949 79.3952 123.173 79.7535C123.397 80.1117 123.75 80.3829 124.231 80.5669L124.952 80.843C125.862 81.1972 126.484 81.7174 126.82 82.4035C127.165 83.0924 127.225 83.8593 126.998 84.7042C126.833 85.3224 126.544 85.8415 126.134 86.2615C125.733 86.6842 125.242 86.9722 124.66 87.1255C124.08 87.2684 123.435 87.2446 122.724 87.0541ZM137.563 91.0633C137.007 90.9143 136.529 90.6979 136.131 90.4144C135.742 90.1336 135.436 89.7921 135.212 89.3898C135.057 89.1052 134.937 88.7694 134.853 88.3825C134.772 87.9852 134.76 87.474 134.817 86.8488C134.884 86.2264 135.047 85.4309 135.307 84.4624C135.566 83.4939 135.823 82.7233 136.076 82.1505C136.339 81.5806 136.605 81.1439 136.874 80.8405C137.143 80.5371 137.414 80.3062 137.689 80.1479C138.083 79.9113 138.519 79.7685 138.996 79.7196C139.483 79.6735 140.005 79.725 140.562 79.874C141.118 80.0231 141.59 80.2381 141.979 80.5189C142.378 80.8024 142.689 81.1453 142.913 81.5475C143.081 81.8247 143.201 82.1604 143.272 82.5549C143.353 82.9522 143.36 83.462 143.293 84.0844C143.236 84.7096 143.078 85.5065 142.818 86.475C142.558 87.4435 142.297 88.2127 142.034 88.7827C141.781 89.3554 141.52 89.7935 141.251 90.0969C140.995 90.3927 140.724 90.6236 140.436 90.7895C140.041 91.0261 139.601 91.1675 139.113 91.2136C138.636 91.2625 138.12 91.2124 137.563 91.0633ZM137.886 89.8579C138.649 90.0622 139.281 90.0107 139.783 89.7035C140.295 89.399 140.666 88.902 140.895 88.2124C141.047 87.7674 141.17 87.3917 141.263 87.0853C141.369 86.7714 141.465 86.4548 141.551 86.1354C141.639 85.8057 141.714 85.4835 141.777 85.1689C141.852 84.8468 141.933 84.46 142.021 84.0087C142.168 83.297 142.095 82.6813 141.804 82.1615C141.523 81.6445 141.001 81.2838 140.239 81.0795C139.476 80.8752 138.839 80.9253 138.327 81.2298C137.825 81.537 137.459 82.0354 137.23 82.725C137.081 83.1597 136.953 83.534 136.846 83.8479C136.753 84.1543 136.663 84.4723 136.574 84.802C136.489 85.1214 136.408 85.4422 136.333 85.7643C136.271 86.0789 136.194 86.4671 136.104 86.9287C135.957 87.6403 136.025 88.2547 136.306 88.7717C136.597 89.2915 137.124 89.6536 137.886 89.8579ZM144.776 92.7971L147.674 81.9787L148.725 82.2603L150.988 91.9274C151.01 92.0106 151.05 92.0488 151.107 92.0419C151.167 92.0248 151.201 91.9788 151.21 91.904L151.317 90.8229L153.284 83.4819L154.521 83.8132L151.622 94.6316L150.386 94.3003L148.215 85.1548C148.198 85.051 148.156 85.0011 148.089 85.0052C148.032 85.012 147.998 85.058 147.986 85.1432L147.871 86.1891L146.012 93.1283L144.776 92.7971ZM155.486 95.667L158.385 84.8487L159.668 85.1924L157.092 94.8053L160.94 95.8364L160.617 97.0419L155.486 95.667ZM163.883 97.9169L165.25 92.8168L163.675 86.2662L165.128 86.6554L166.035 91.1223L166.066 91.8098C166.073 91.8669 166.102 91.9023 166.154 91.9161C166.215 91.9326 166.258 91.9166 166.283 91.8678L166.653 91.288L169.672 87.8729L171.125 88.2622L166.486 93.1481L165.12 98.2482L163.883 97.9169Z" fill="white"/>
<!-- <path d="M92.5387 0.157483C92.0734 -0.14001 91.455 -0.00396676 91.1575 0.461343L86.3095 8.04404C86.012 8.50936 86.1481 9.12773 86.6134 9.42523C87.0787 9.72272 87.6971 9.58668 87.9946 9.12137L92.3039 2.38119L99.044 6.69048C99.5094 6.98798 100.128 6.85194 100.425 6.38662C100.723 5.92131 100.587 5.30293 100.121 5.00544L92.5387 0.157483ZM103.977 50.7851L92.9766 0.785144L91.0234 1.21487L102.023 51.2149L103.977 50.7851Z" fill="white"/> -->
</svg>
