<svg width="85" height="184" viewBox="0 0 85 184" fill="none" xmlns="http://www.w3.org/2000/svg">
<path d="M6.29345 155.331L5.97872 154.157L7.8333 153.66L5.56398 145.19L3.7094 145.687L3.39467 144.513L8.38658 143.175L8.7013 144.35L6.84673 144.847L9.11605 153.316L10.9706 152.819L11.2854 153.994L6.29345 155.331ZM22.9666 151.062C22.2454 151.256 21.5875 151.294 20.993 151.177C20.3986 151.06 19.8778 150.786 19.4306 150.353C18.991 149.908 18.6368 149.307 18.3679 148.551C18.2673 148.258 18.1542 147.918 18.0286 147.532C17.9031 147.146 17.7976 146.793 17.712 146.474C17.6237 146.144 17.5387 145.786 17.4572 145.399C17.3729 145.002 17.301 144.652 17.2415 144.347C17.0935 143.548 17.0999 142.85 17.2607 142.255C17.4317 141.657 17.7455 141.159 18.2019 140.761C18.6584 140.362 19.2472 140.066 19.9684 139.873C20.4115 139.754 20.8663 139.721 21.3329 139.773C21.7967 139.814 22.2504 139.941 22.6938 140.153L22.5973 141.339C22.2165 141.154 21.8329 141.041 21.4467 141.001C21.0578 140.951 20.6727 140.976 20.2914 141.079C19.5496 141.277 19.0279 141.638 18.7262 142.161C18.4348 142.68 18.371 143.349 18.5348 144.166C18.6136 144.543 18.6827 144.883 18.7421 145.188C18.8119 145.489 18.891 145.805 18.9793 146.134C19.0649 146.454 19.1542 146.767 19.2474 147.073C19.348 147.366 19.4584 147.696 19.5784 148.061C19.8452 148.851 20.2348 149.398 20.747 149.703C21.2696 150.004 21.9018 150.056 22.6436 149.857C23.0248 149.755 23.3726 149.59 23.6871 149.362C23.9987 149.124 24.2732 148.829 24.5105 148.479L25.1868 149.457C24.909 149.863 24.581 150.205 24.2027 150.483C23.8217 150.75 23.4096 150.944 22.9666 151.062ZM28.4796 149.386L25.5808 138.568L26.8635 138.224L28.1514 143.031L32.386 141.896L31.0982 137.09L32.3809 136.746L35.2797 147.564L33.9969 147.908L32.709 143.102L28.4744 144.236L29.7623 149.043L28.4796 149.386ZM42.4868 145.832C41.9304 145.981 41.4086 146.033 40.9214 145.986C40.4445 145.938 40.0087 145.795 39.614 145.558C39.3369 145.39 39.0652 145.159 38.799 144.866C38.5299 144.562 38.2639 144.125 38.0007 143.556C37.7478 142.983 37.4917 142.212 37.2322 141.244C36.9726 140.275 36.8092 139.48 36.7418 138.857C36.6847 138.232 36.6968 137.721 36.7781 137.324C36.8594 136.926 36.9792 136.591 37.1376 136.316C37.3611 135.914 37.6672 135.572 38.0557 135.292C38.4546 135.008 38.9322 134.792 39.4886 134.643C40.045 134.494 40.5616 134.444 41.0385 134.492C41.5257 134.539 41.9667 134.68 42.3613 134.917C42.646 135.072 42.9177 135.303 43.1764 135.609C43.4454 135.913 43.7063 136.351 43.9592 136.923C44.2224 137.493 44.4837 138.263 44.7432 139.231C45.0027 140.2 45.161 140.996 45.2181 141.622C45.2855 142.244 45.2785 142.754 45.1973 143.151C45.1235 143.535 45.0037 143.871 44.8377 144.159C44.6142 144.561 44.303 144.904 43.9042 145.187C43.5156 145.468 43.0431 145.683 42.4868 145.832ZM42.1637 144.627C42.9262 144.422 43.448 144.062 43.729 143.545C44.0204 143.025 44.0929 142.409 43.9464 141.697C43.8558 141.236 43.7743 140.849 43.7017 140.537C43.6368 140.212 43.5615 139.89 43.4759 139.571C43.3876 139.241 43.2917 138.924 43.1882 138.621C43.0924 138.304 42.9696 137.928 42.82 137.494C42.591 136.804 42.2204 136.307 41.7082 136.003C41.2062 135.695 40.574 135.644 39.8116 135.848C39.0492 136.052 38.5222 136.415 38.2309 136.934C37.9498 137.451 37.8825 138.066 38.029 138.777C38.1168 139.229 38.1932 139.617 38.2582 139.942C38.3307 140.254 38.4111 140.574 38.4995 140.904C38.585 141.223 38.6758 141.541 38.7717 141.858C38.8751 142.162 39.003 142.536 39.1554 142.981C39.3843 143.671 39.7498 144.169 40.2517 144.476C40.764 144.781 41.4013 144.831 42.1637 144.627ZM53.092 142.99C52.5356 143.139 52.0139 143.191 51.5266 143.145C51.0497 143.096 50.6139 142.953 50.2193 142.717C49.9422 142.548 49.6705 142.317 49.4042 142.024C49.1352 141.72 48.8691 141.284 48.606 140.714C48.3531 140.141 48.0969 139.37 47.8374 138.402C47.5779 137.433 47.4145 136.638 47.3471 136.016C47.29 135.39 47.3021 134.879 47.3834 134.482C47.4647 134.085 47.5845 133.749 47.7429 133.475C47.9664 133.072 48.2724 132.731 48.661 132.45C49.0599 132.166 49.5375 131.95 50.0939 131.801C50.6502 131.652 51.1669 131.602 51.6438 131.651C52.131 131.697 52.5719 131.838 52.9666 132.075C53.2513 132.23 53.5229 132.461 53.7817 132.768C54.0507 133.071 54.3116 133.509 54.5645 134.082C54.8276 134.652 55.0889 135.421 55.3485 136.389C55.608 137.358 55.7663 138.155 55.8234 138.78C55.8907 139.402 55.8838 139.912 55.8025 140.309C55.7288 140.694 55.6089 141.029 55.443 141.317C55.2195 141.719 54.9083 142.062 54.5094 142.346C54.1209 142.626 53.6484 142.841 53.092 142.99ZM52.769 141.785C53.5314 141.581 54.0532 141.22 54.3343 140.703C54.6257 140.183 54.6981 139.567 54.5516 138.856C54.4611 138.394 54.3795 138.007 54.307 137.695C54.242 137.371 54.1667 137.048 54.0812 136.729C53.9928 136.399 53.8969 136.083 53.7935 135.779C53.6976 135.462 53.5749 135.087 53.4252 134.652C53.1963 133.962 52.8257 133.465 52.3134 133.161C51.8115 132.854 51.1793 132.802 50.4169 133.007C49.6544 133.211 49.1275 133.573 48.8361 134.093C48.555 134.61 48.4877 135.224 48.6343 135.936C48.7221 136.387 48.7984 136.775 48.8634 137.1C48.9359 137.412 49.0164 137.733 49.1047 138.062C49.1903 138.382 49.281 138.7 49.3769 139.016C49.4803 139.32 49.6082 139.694 49.7606 140.139C49.9896 140.829 50.355 141.327 50.857 141.635C51.3692 141.939 52.0066 141.989 52.769 141.785ZM62.6417 140.398C62.0441 140.558 61.4423 140.62 60.8362 140.584C60.2274 140.537 59.6896 140.405 59.2228 140.188L59.3965 138.982C59.8166 139.19 60.2805 139.314 60.7884 139.354C61.2962 139.395 61.7871 139.352 62.261 139.225C62.9925 139.029 63.4941 138.696 63.7656 138.225C64.0371 137.755 64.0942 137.226 63.9368 136.639C63.8043 136.145 63.5544 135.748 63.1872 135.449C62.8199 135.149 62.302 135.051 61.6336 135.153L60.8711 135.274C60.2775 135.367 59.743 135.35 59.2673 135.223C58.7917 135.097 58.3919 134.862 58.0678 134.518C57.741 134.164 57.5031 133.708 57.354 133.152C57.1967 132.565 57.2015 132.006 57.3685 131.475C57.5328 130.934 57.8431 130.465 58.2996 130.066C58.7635 129.655 59.3613 129.351 60.0928 129.155C60.5462 129.033 61.0264 128.971 61.5335 128.968C62.0405 128.964 62.536 129.041 63.0199 129.199L62.9234 130.384C62.4835 130.226 62.0488 130.149 61.6194 130.154C61.19 130.159 60.7898 130.211 60.4189 130.31C59.677 130.509 59.1508 130.832 58.84 131.28C58.5369 131.714 58.4571 132.199 58.6006 132.735C58.7469 133.281 59.0068 133.653 59.3801 133.851C59.7534 134.05 60.1943 134.108 60.7026 134.027L61.4652 133.906C62.4304 133.757 63.2296 133.897 63.863 134.323C64.5066 134.747 64.9416 135.382 65.168 136.226C65.3336 136.845 65.3436 137.438 65.1979 138.007C65.0626 138.574 64.7811 139.069 64.3536 139.492C63.9232 139.906 63.3526 140.208 62.6417 140.398ZM69.0593 138.513L66.1605 127.695L72.3888 126.026L72.7118 127.231L67.689 128.577L68.6539 132.178L73.414 130.903L73.737 132.108L68.9769 133.384L69.9418 136.985L74.9646 135.639L75.2876 136.844L69.0593 138.513ZM31.3335 174.918L30.5674 172.059L31.6492 171.769L32.4153 174.628L31.3335 174.918ZM27.9336 162.229L27.1924 159.463L28.2742 159.173L29.0155 161.939L27.9336 162.229ZM30.9237 172.709C30.3261 172.869 29.7243 172.931 29.1182 172.894C28.5094 172.847 27.9716 172.715 27.5048 172.498L27.6786 171.292C28.0986 171.5 28.5626 171.624 29.0704 171.665C29.5782 171.705 30.0691 171.662 30.543 171.535C31.2746 171.339 31.7761 171.006 32.0476 170.536C32.3192 170.065 32.3762 169.537 32.2189 168.949C32.0864 168.455 31.8365 168.058 31.4692 167.759C31.1019 167.46 30.5841 167.361 29.9157 167.463L29.1531 167.584C28.5596 167.677 28.025 167.66 27.5494 167.534C27.0737 167.407 26.6739 167.172 26.3499 166.828C26.0231 166.474 25.7851 166.019 25.6361 165.462C25.4787 164.875 25.4835 164.316 25.6505 163.785C25.8148 163.244 26.1251 162.775 26.5816 162.376C27.0456 161.965 27.6433 161.661 28.3749 161.465C28.8282 161.344 29.3084 161.281 29.8155 161.278C30.3226 161.275 30.8181 161.352 31.302 161.509L31.2055 162.694C30.7655 162.536 30.3309 162.459 29.9014 162.464C29.472 162.469 29.0718 162.521 28.7009 162.62C27.9591 162.819 27.4328 163.142 27.1221 163.59C26.8189 164.024 26.7391 164.51 26.8826 165.045C27.029 165.591 27.2888 165.963 27.6621 166.162C28.0355 166.36 28.4763 166.418 28.9847 166.337L29.7472 166.216C30.7124 166.068 31.5117 166.207 32.145 166.633C32.7886 167.057 33.2236 167.692 33.45 168.537C33.6157 169.155 33.6256 169.748 33.48 170.317C33.3446 170.884 33.0631 171.379 32.6356 171.803C32.2053 172.216 31.6346 172.518 30.9237 172.709ZM37.6094 170.751L34.7106 159.933L37.5234 159.179C38.7701 158.845 39.8035 158.911 40.6238 159.376C41.4441 159.841 42.0469 160.607 42.4323 161.674C42.5274 161.947 42.6243 162.246 42.723 162.573C42.8319 162.897 42.9264 163.209 43.0065 163.508C43.0865 163.807 43.1604 164.124 43.2282 164.459C43.3062 164.791 43.3722 165.099 43.4261 165.383C43.6363 166.497 43.4973 167.462 43.0091 168.278C42.5312 169.09 41.6688 169.664 40.4222 169.998L37.6094 170.751ZM38.5476 169.307L40.124 168.885C41.0307 168.642 41.6252 168.223 41.9076 167.629C42.2003 167.031 42.2767 166.348 42.137 165.579C42.0741 165.221 42.0095 164.918 41.9432 164.671C41.8873 164.421 41.8192 164.146 41.7392 163.847C41.6591 163.549 41.5808 163.277 41.5042 163.032C41.438 162.785 41.3425 162.49 41.2177 162.148C40.9543 161.413 40.5466 160.86 39.9944 160.488C39.4525 160.115 38.7296 160.054 37.8257 160.308L36.2493 160.73L38.5476 169.307ZM51.3449 167.27C50.7885 167.419 50.2667 167.47 49.7795 167.424C49.3026 167.375 48.8668 167.233 48.4722 166.996C48.1951 166.827 47.9234 166.596 47.6571 166.303C47.3881 166 47.122 165.563 46.8589 164.993C46.606 164.421 46.3498 163.65 46.0903 162.681C45.8308 161.713 45.6674 160.917 45.6 160.295C45.5429 159.67 45.555 159.159 45.6363 158.761C45.7175 158.364 45.8374 158.028 45.9958 157.754C46.2193 157.352 46.5253 157.01 46.9139 156.729C47.3128 156.446 47.7904 156.23 48.3468 156.081C48.9031 155.931 49.4198 155.881 49.8967 155.93C50.3839 155.976 50.8248 156.118 51.2195 156.354C51.5042 156.51 51.7758 156.741 52.0346 157.047C52.3036 157.35 52.5645 157.788 52.8174 158.361C53.0805 158.931 53.3418 159.7 53.6014 160.669C53.8609 161.637 54.0192 162.434 54.0763 163.059C54.1436 163.682 54.1367 164.192 54.0554 164.589C53.9817 164.973 53.8618 165.309 53.6959 165.596C53.4724 165.999 53.1612 166.341 52.7623 166.625C52.3738 166.906 51.9013 167.121 51.3449 167.27ZM51.0219 166.064C51.7843 165.86 52.3061 165.499 52.5872 164.982C52.8786 164.463 52.951 163.847 52.8045 163.135C52.714 162.674 52.6324 162.287 52.5599 161.975C52.4949 161.65 52.4196 161.328 52.3341 161.008C52.2457 160.679 52.1498 160.362 52.0464 160.059C51.9505 159.742 51.8278 159.366 51.6781 158.931C51.4492 158.242 51.0786 157.745 50.5663 157.44C50.0644 157.133 49.4322 157.082 48.6698 157.286C47.9073 157.49 47.3804 157.852 47.089 158.372C46.8079 158.889 46.7406 159.504 46.8871 160.215C46.9749 160.667 47.0513 161.055 47.1163 161.38C47.1888 161.691 47.2693 162.012 47.3576 162.342C47.4432 162.661 47.5339 162.979 47.6298 163.296C47.7332 163.6 47.8611 163.974 48.0135 164.419C48.2425 165.108 48.6079 165.607 49.1099 165.914C49.6221 166.219 50.2595 166.269 51.0219 166.064ZM58.4577 165.165L55.5589 154.347L56.6098 154.065L63.4033 161.306C63.4638 161.367 63.5171 161.38 63.5631 161.346C63.6063 161.301 63.6131 161.244 63.5835 161.175L63.136 160.185L61.169 152.844L62.4054 152.512L65.3042 163.331L64.0678 163.662L57.6149 156.827C57.5489 156.746 57.4877 156.723 57.4314 156.76C57.3854 156.795 57.3786 156.852 57.411 156.932L57.8347 157.895L59.6941 164.834L58.4577 165.165Z" fill="white"/>
<!-- <path d="M15.599 0.199285C15.1568 -0.131563 14.5301 -0.0412765 14.1993 0.400946L8.80783 7.60735C8.47699 8.04957 8.56727 8.67626 9.00949 9.00711C9.45171 9.33796 10.0784 9.24767 10.4093 8.80545L15.2017 2.39976L21.6073 7.19216C22.0496 7.52301 22.6763 7.43272 23.0071 6.9905C23.338 6.54828 23.2477 5.92159 22.8055 5.59074L15.599 0.199285ZM32.9898 118.857L15.9898 0.857401L14.0102 1.14259L31.0102 119.143L32.9898 118.857Z" fill="white"/> -->
</svg>
