<svg width="168" height="140" viewBox="0 0 168 140" fill="none" xmlns="http://www.w3.org/2000/svg">
<path d="M5.4839 133.501L2.91339 122.6L3.97234 122.35L10.5439 129.793C10.6025 129.856 10.6554 129.871 10.7024 129.838C10.747 129.794 10.7555 129.738 10.728 129.667L10.3106 128.664L8.56635 121.267L9.81218 120.973L12.3827 131.874L11.1369 132.168L4.89352 125.142C4.82996 125.058 4.76948 125.034 4.71208 125.069C4.66507 125.102 4.65655 125.159 4.68651 125.24L5.08093 126.215L6.72973 133.207L5.4839 133.501ZM19.6377 130.361C19.0771 130.493 18.554 130.529 18.0684 130.468C17.5932 130.405 17.1619 130.249 16.7746 130C16.5027 129.823 16.2381 129.584 15.9808 129.283C15.7211 128.972 15.4683 128.528 15.2225 127.95C14.9871 127.37 14.7543 126.592 14.5242 125.616C14.2941 124.64 14.1547 123.84 14.1062 123.216C14.068 122.589 14.0956 122.079 14.1888 121.684C14.2821 121.289 14.412 120.957 14.5786 120.688C14.8142 120.293 15.1304 119.96 15.5273 119.692C15.9345 119.42 16.4185 119.218 16.9791 119.086C17.5397 118.954 18.0576 118.92 18.5329 118.983C19.0184 119.044 19.4549 119.198 19.8423 119.447C20.1221 119.611 20.3867 119.85 20.636 120.164C20.8957 120.475 21.1433 120.921 21.3787 121.501C21.6245 122.079 21.8625 122.855 22.0926 123.831C22.3228 124.807 22.4569 125.608 22.4951 126.235C22.5436 126.859 22.5213 127.369 22.428 127.763C22.3427 128.145 22.2128 128.477 22.0382 128.759C21.8027 129.155 21.4812 129.488 21.074 129.759C20.6771 130.028 20.1984 130.229 19.6377 130.361ZM19.3513 129.146C20.1196 128.965 20.652 128.62 20.9486 128.112C21.2556 127.601 21.3466 126.988 21.2216 126.272C21.1451 125.808 21.0752 125.419 21.0122 125.105C20.9571 124.778 20.8916 124.454 20.8157 124.132C20.7373 123.8 20.651 123.481 20.5568 123.174C20.4706 122.855 20.3592 122.476 20.2228 122.036C20.0148 121.34 19.6594 120.832 19.1566 120.513C18.6641 120.19 18.0338 120.12 17.2655 120.301C16.4973 120.482 15.9596 120.828 15.6527 121.339C15.3561 121.847 15.2703 122.459 15.3952 123.175C15.4693 123.629 15.534 124.019 15.5891 124.346C15.6521 124.66 15.7228 124.983 15.8012 125.315C15.8771 125.637 15.9582 125.957 16.0444 126.277C16.1386 126.583 16.2552 126.961 16.394 127.411C16.602 128.107 16.9523 128.616 17.4447 128.938C17.9475 129.258 18.5831 129.327 19.3513 129.146ZM31.9463 127.261L29.3758 116.36L35.4803 114.921L35.7668 116.135L30.9547 117.27L31.8104 120.899L36.2175 119.859L36.5039 121.074L32.0968 122.113L33.2388 126.956L31.9463 127.261ZM41.1726 125.086L38.6021 114.185L44.878 112.705L45.1644 113.919L40.1032 115.113L40.9588 118.741L45.7553 117.61L46.0417 118.825L41.2453 119.956L42.1009 123.585L47.1621 122.391L47.4485 123.606L41.1726 125.086ZM49.936 123.019L50.4334 111.395L52.3021 110.954L57.9716 121.124L56.6479 121.437L52.0796 113.078L51.7604 112.282C51.7353 112.222 51.6916 112.199 51.6293 112.214C51.5774 112.226 51.5536 112.265 51.5579 112.33L51.6124 113.188L51.2597 122.707L49.936 123.019ZM50.9312 119.711L51.0021 118.477L54.9887 117.537L55.6031 118.609L50.9312 119.711ZM48.9261 112.95L48.6581 111.813L50.8538 111.296L51.1219 112.432L48.9261 112.95ZM60.7811 120.462L58.2106 109.561L61.7612 108.724C62.7579 108.489 63.6002 108.575 64.2881 108.983C64.9864 109.388 65.4518 110.084 65.6844 111.07C65.8558 111.797 65.8173 112.447 65.569 113.02C65.3207 113.594 64.9007 114.044 64.309 114.37C64.171 114.435 64.1735 114.539 64.3165 114.68L64.9444 115.321L67.3061 118.923L65.9201 119.25L63.0184 114.822L60.8849 115.325L62.0269 120.168L60.7811 120.462ZM60.6168 114.188L62.9216 113.645C63.5134 113.505 63.9438 113.239 64.213 112.847C64.4797 112.444 64.5445 111.952 64.4074 111.371C64.2556 110.727 63.968 110.275 63.5447 110.013C63.1188 109.741 62.61 109.674 62.0182 109.814L59.7135 110.357L60.6168 114.188ZM69.946 121.441L69.9245 120.722C70.5102 120.464 70.9265 120.092 71.1736 119.606C71.4232 119.131 71.4914 118.583 71.3781 117.963L70.4904 118.172L70.1232 116.615L71.7584 116.23L72.0742 117.569C72.2137 118.161 72.2167 118.708 72.0832 119.211C71.9601 119.711 71.7135 120.153 71.3436 120.536C70.984 120.916 70.5182 121.218 69.946 121.441ZM82.4502 115.55C82.0661 115.64 81.6168 115.664 81.1026 115.621C80.5962 115.565 80.139 115.415 79.7309 115.172L79.8595 113.974C80.0641 114.145 80.3006 114.265 80.5687 114.333C80.8473 114.399 81.1289 114.431 81.4135 114.43C81.706 114.415 81.9561 114.384 82.1638 114.335C82.6621 114.217 83.0285 114.005 83.2628 113.698C83.5076 113.388 83.5786 113.015 83.4758 112.579L81.7572 105.291L79.2655 105.878L78.9791 104.664L82.7477 103.775L84.7527 112.278C84.9437 113.087 84.8283 113.783 84.4065 114.365C83.9951 114.944 83.343 115.339 82.4502 115.55ZM92.5849 113.127C91.9101 113.286 91.2813 113.292 90.6986 113.144C90.1238 112.984 89.6323 112.689 89.224 112.259C88.8262 111.827 88.5514 111.289 88.3996 110.645L86.5672 102.874L87.8754 102.566L89.6922 110.34C89.8391 110.963 90.1511 111.427 90.6283 111.731C91.1134 112.022 91.6726 112.093 92.3059 111.943C92.9391 111.794 93.4026 111.482 93.6961 111.007C93.9976 110.52 94.0749 109.964 93.928 109.342L92.0956 101.571L93.4037 101.262L95.2206 109.037C95.3724 109.68 95.3617 110.286 95.1885 110.853C95.0257 111.417 94.7178 111.901 94.2648 112.303C93.8197 112.693 93.2598 112.968 92.5849 113.127ZM102.246 110.849C101.644 110.991 101.04 111.034 100.436 110.98C99.8286 110.915 99.295 110.766 98.835 110.535L99.0451 109.335C99.4587 109.555 99.9187 109.693 100.425 109.749C100.931 109.805 101.423 109.777 101.901 109.664C102.638 109.49 103.149 109.173 103.435 108.711C103.721 108.249 103.794 107.722 103.654 107.13C103.537 106.632 103.299 106.228 102.941 105.918C102.583 105.607 102.068 105.493 101.397 105.575L100.631 105.673C100.035 105.748 99.5011 105.715 99.0295 105.574C98.558 105.433 98.1654 105.186 97.8519 104.833C97.536 104.469 97.3119 104.006 97.1797 103.446C97.0402 102.854 97.0619 102.296 97.2449 101.77C97.4254 101.234 97.7498 100.774 98.2181 100.39C98.6943 99.9927 99.3009 99.7072 100.038 99.5334C100.495 99.4257 100.977 99.3778 101.484 99.3898C101.991 99.4017 102.484 99.4937 102.963 99.6657L102.83 100.848C102.395 100.676 101.963 100.586 101.534 100.578C101.104 100.57 100.703 100.61 100.329 100.698C99.5815 100.874 99.0457 101.181 98.7216 101.619C98.4055 102.044 98.311 102.527 98.4383 103.067C98.5681 103.617 98.8165 103.997 99.1837 104.206C99.5509 104.416 99.9898 104.487 100.5 104.422L101.266 104.323C102.235 104.204 103.03 104.368 103.65 104.813C104.281 105.256 104.696 105.904 104.897 106.755C105.044 107.378 105.036 107.972 104.873 108.536C104.721 109.098 104.425 109.584 103.984 109.995C103.542 110.395 102.962 110.68 102.246 110.849ZM110.462 108.747L108.178 99.0606L105.499 99.6922L105.213 98.4776L111.878 96.9059L112.164 98.1206L109.47 98.7558L111.754 108.442L110.462 108.747ZM125.496 107.668L124.817 104.787L125.907 104.53L126.586 107.411L125.496 107.668ZM122.481 94.8823L121.824 92.0947L122.914 91.8377L123.571 94.6252L122.481 94.8823ZM125.153 105.447C124.551 105.589 123.948 105.633 123.343 105.578C122.736 105.513 122.202 105.365 121.742 105.134L121.952 103.933C122.366 104.154 122.826 104.292 123.332 104.348C123.839 104.404 124.331 104.375 124.808 104.263C125.545 104.089 126.057 103.771 126.342 103.309C126.628 102.847 126.701 102.32 126.562 101.729C126.444 101.23 126.206 100.826 125.848 100.516C125.49 100.206 124.975 100.092 124.304 100.173L123.538 100.272C122.942 100.346 122.409 100.313 121.937 100.172C121.465 100.032 121.073 99.7844 120.759 99.4309C120.443 99.067 120.219 98.6048 120.087 98.0442C119.948 97.4524 119.969 96.8938 120.152 96.3685C120.333 95.8328 120.657 95.3727 121.125 94.9883C121.602 94.5911 122.208 94.3055 122.945 94.1317C123.402 94.024 123.884 93.9761 124.391 93.9881C124.898 94.0001 125.391 94.0921 125.87 94.2641L125.738 95.446C125.303 95.2746 124.87 95.1847 124.441 95.1763C124.012 95.168 123.61 95.2079 123.236 95.296C122.489 95.4723 121.953 95.7794 121.629 96.2175C121.313 96.6428 121.218 97.1253 121.346 97.6652C121.475 98.2154 121.724 98.5952 122.091 98.8045C122.458 99.0139 122.897 99.0857 123.408 99.0201L124.174 98.9217C125.143 98.8028 125.937 98.9661 126.558 99.4116C127.188 99.8547 127.604 100.502 127.805 101.353C127.951 101.976 127.943 102.57 127.781 103.134C127.628 103.696 127.332 104.183 126.892 104.593C126.449 104.994 125.87 105.278 125.153 105.447ZM131.895 103.693L129.325 92.7919L132.159 92.1235C133.415 91.8273 134.446 91.9239 135.252 92.4134C136.058 92.9028 136.637 93.6868 136.99 94.7652C137.077 95.0406 137.165 95.3432 137.253 95.673C137.353 96.0003 137.438 96.3145 137.509 96.6156C137.58 96.9167 137.644 97.2358 137.701 97.5729C137.769 97.9076 137.826 98.2175 137.871 98.5027C138.048 99.6228 137.88 100.583 137.367 101.383C136.865 102.181 135.986 102.728 134.729 103.025L131.895 103.693ZM132.877 102.278L134.465 101.903C135.379 101.688 135.985 101.287 136.286 100.701C136.596 100.113 136.693 99.4326 136.577 98.66C136.525 98.2997 136.469 97.9949 136.411 97.7458C136.362 97.4942 136.303 97.2178 136.232 96.9167C136.161 96.6157 136.091 96.3418 136.021 96.095C135.963 95.8459 135.876 95.5485 135.762 95.2028C135.521 94.4596 135.13 93.8943 134.589 93.5067C134.059 93.1167 133.338 93.0345 132.427 93.2604L130.838 93.6349L132.877 102.278ZM145.73 100.628C145.169 100.76 144.646 100.796 144.16 100.735C143.685 100.672 143.254 100.516 142.866 100.267C142.595 100.09 142.33 99.8515 142.073 99.5505C141.813 99.2391 141.56 98.7946 141.314 98.2169C141.079 97.6368 140.846 96.8588 140.616 95.8829C140.386 94.907 140.247 94.1069 140.198 93.4828C140.16 92.8561 140.187 92.3455 140.281 91.9509C140.374 91.5563 140.504 91.2243 140.67 90.9548C140.906 90.5596 141.222 90.2275 141.619 89.9585C142.026 89.6871 142.51 89.4854 143.071 89.3532C143.632 89.221 144.149 89.1865 144.625 89.2498C145.11 89.3106 145.547 89.4653 145.934 89.7137C146.214 89.8778 146.478 90.1168 146.728 90.4306C146.988 90.742 147.235 91.1877 147.471 91.7679C147.716 92.3455 147.954 93.1223 148.184 94.0982C148.415 95.0741 148.549 95.8754 148.587 96.502C148.635 97.1262 148.613 97.6356 148.52 98.0302C148.435 98.412 148.305 98.744 148.13 99.0262C147.894 99.4215 147.573 99.7549 147.166 100.026C146.769 100.295 146.29 100.496 145.73 100.628ZM145.443 99.4133C146.211 99.2321 146.744 98.8874 147.04 98.3791C147.347 97.8683 147.438 97.255 147.313 96.5393C147.237 96.0751 147.167 95.6861 147.104 95.3722C147.049 95.0455 146.983 94.7212 146.907 94.3993C146.829 94.0671 146.743 93.7477 146.649 93.4412C146.562 93.1218 146.451 92.7425 146.315 92.3034C146.107 91.6073 145.751 91.0993 145.248 90.7795C144.756 90.4572 144.126 90.3867 143.357 90.5678C142.589 90.749 142.051 91.095 141.745 91.6057C141.448 92.114 141.362 92.7261 141.487 93.4418C141.561 93.8956 141.626 94.2858 141.681 94.6126C141.744 94.9265 141.815 95.2495 141.893 95.5818C141.969 95.9036 142.05 96.2242 142.136 96.5436C142.23 96.8502 142.347 97.2282 142.486 97.6776C142.694 98.3738 143.044 98.883 143.537 99.2053C144.039 99.5251 144.675 99.5944 145.443 99.4133ZM152.903 98.7392L150.332 87.8382L151.391 87.5885L157.963 95.0309C158.021 95.0938 158.074 95.1087 158.121 95.0757C158.166 95.0323 158.174 94.9755 158.147 94.9053L157.729 93.9023L155.985 86.5052L157.231 86.2114L159.801 97.1125L158.556 97.4062L152.312 90.3796C152.249 90.2959 152.188 90.2718 152.131 90.3073C152.084 90.3403 152.075 90.3971 152.105 90.4777L152.5 91.4532L154.149 98.4454L152.903 98.7392ZM163.049 92.8945L161.047 85.3116L162.371 84.9994L163.968 92.6779L163.049 92.8945ZM163.618 96.2126L163.269 94.7332L164.592 94.421L164.941 95.9005L163.618 96.2126Z" fill="white"/>
<!-- <path d="M68.5527 0.166597C68.0924 -0.138638 67.4718 -0.0129543 67.1666 0.44732L62.1925 7.9479C61.8873 8.40817 62.013 9.02873 62.4733 9.33397C62.9335 9.6392 63.5541 9.51352 63.8593 9.05325L68.2807 2.38607L74.9479 6.80746C75.4082 7.11269 76.0287 6.98701 76.334 6.52674C76.6392 6.06646 76.5135 5.4459 76.0533 5.14066L68.5527 0.166597ZM84.9801 79.8015L68.9801 0.801493L67.0199 1.1985L83.0199 80.1985L84.9801 79.8015Z" fill="white"/> -->
</svg>
