<svg width="108" height="116" viewBox="0 0 108 116" fill="none" xmlns="http://www.w3.org/2000/svg">
<path d="M5.51546 89.6657L7.52178 79.918L4.82628 79.3632L5.07788 78.1408L11.7853 79.5214L11.5337 80.7438L8.82251 80.1858L6.81619 89.9334L5.51546 89.6657ZM15.3342 91.8827C14.7701 91.7666 14.2806 91.5787 13.8657 91.319C13.4613 91.0616 13.1357 90.7386 12.889 90.3502C12.7169 90.0752 12.5775 89.7471 12.4709 89.3657C12.3664 88.974 12.3242 88.4643 12.3445 87.8369C12.3752 87.2116 12.4916 86.4079 12.6937 85.4258C12.8959 84.4437 13.1063 83.6593 13.3251 83.0727C13.5543 82.4883 13.7942 82.0367 14.045 81.7181C14.2957 81.3994 14.5533 81.1529 14.8179 80.9787C15.198 80.7193 15.6246 80.5512 16.0978 80.4744C16.5815 80.3997 17.1054 80.4204 17.6696 80.5365C18.2337 80.6526 18.718 80.8394 19.1224 81.0969C19.5373 81.3565 19.8681 81.6806 20.1148 82.0689C20.2995 82.3357 20.4389 82.6638 20.5329 83.0534C20.6374 83.4452 20.6743 83.9538 20.6437 84.5791C20.6234 85.2066 20.5122 86.0113 20.3101 86.9934C20.1079 87.9755 19.8923 88.7588 19.6631 89.3432C19.4443 89.9298 19.2096 90.3825 18.9589 90.7011C18.7207 91.0115 18.4631 91.258 18.1859 91.4405C17.8058 91.6999 17.374 91.8669 16.8903 91.9416C16.4171 92.0184 15.8984 91.9988 15.3342 91.8827ZM15.5858 90.6603C16.359 90.8194 16.987 90.7309 17.4701 90.3947C17.9635 90.0607 18.3043 89.5427 18.4923 88.8409C18.6183 88.3876 18.7187 88.0054 18.7937 87.6941C18.8812 87.3745 18.9584 87.0528 19.025 86.7289C19.0938 86.3946 19.15 86.0686 19.1937 85.7508C19.2499 85.4248 19.3085 85.0339 19.3697 84.5782C19.4741 83.8592 19.3656 83.2488 19.0442 82.747C18.7332 82.2474 18.1911 81.918 17.418 81.7589C16.6448 81.5998 16.0115 81.6872 15.5181 82.0213C15.035 82.3574 14.6995 82.8765 14.5115 83.5783C14.3877 84.0211 14.282 84.4023 14.1945 84.7219C14.1195 85.0331 14.0476 85.3559 13.9788 85.6903C13.9121 86.0141 13.8507 86.3391 13.7945 86.6651C13.7509 86.9829 13.6974 87.3748 13.6341 87.8409C13.5297 88.56 13.633 89.1693 13.944 89.6689C14.2654 90.1707 14.8127 90.5012 15.5858 90.6603ZM29.559 94.6145L31.5653 84.8668L28.8698 84.312L29.1214 83.0896L35.8288 84.4702L35.5772 85.6925L32.866 85.1345L30.8597 94.8822L29.559 94.6145ZM36.5528 96.054L38.8108 85.0839L40.1115 85.3517L39.1083 90.2255L43.4023 91.1093L44.4055 86.2355L45.7062 86.5032L43.4483 97.4732L42.1476 97.2055L43.1507 92.3317L38.8567 91.4479L37.8536 96.3217L36.5528 96.054ZM47.368 98.28L49.6259 87.31L55.9415 88.6099L55.6899 89.8322L50.5967 88.7839L49.8451 92.4354L54.672 93.4289L54.4204 94.6512L49.5935 93.6578L48.842 97.3092L53.9352 98.3575L53.6836 99.5799L47.368 98.28ZM62.2951 101.352L64.553 90.3823L65.65 90.6081L67.2386 96.0644C67.2715 96.1692 67.3193 96.228 67.382 96.2409C67.4551 96.256 67.5223 96.2208 67.5834 96.1354L71.1977 91.75L72.2947 91.9758L70.0368 102.946L68.7831 102.688L70.254 95.5416L70.6139 94.5865C70.6394 94.5155 70.6282 94.4642 70.5802 94.4326C70.5427 94.4031 70.4893 94.4247 70.4198 94.4976L67.4125 98.0768L66.629 97.9155L65.2796 93.4396C65.255 93.3474 65.2144 93.3064 65.1579 93.3165C65.1014 93.3267 65.0708 93.3694 65.0662 93.4447L65.0197 94.4642L63.5488 101.61L62.2951 101.352ZM77.2513 104.627C76.6871 104.511 76.1976 104.323 75.7828 104.063C75.3784 103.806 75.0528 103.483 74.806 103.094C74.634 102.819 74.4946 102.491 74.3879 102.11C74.2834 101.718 74.2413 101.208 74.2616 100.581C74.2923 99.9557 74.4087 99.152 74.6108 98.1699C74.8129 97.1878 75.0234 96.4034 75.2421 95.8168C75.4713 95.2324 75.7113 94.7808 75.962 94.4621C76.2127 94.1435 76.4704 93.897 76.7349 93.7228C77.115 93.4634 77.5417 93.2953 78.0149 93.2185C78.4986 93.1438 79.0225 93.1645 79.5866 93.2806C80.1508 93.3967 80.6351 93.5835 81.0395 93.841C81.4543 94.1006 81.7851 94.4246 82.0319 94.813C82.2166 95.0797 82.356 95.4079 82.45 95.7975C82.5545 96.1893 82.5914 96.6979 82.5607 97.3232C82.5405 97.9507 82.4293 98.7554 82.2271 99.7375C82.025 100.72 81.8093 101.503 81.5801 102.087C81.3614 102.674 81.1267 103.127 80.8759 103.445C80.6378 103.756 80.3802 104.002 80.103 104.185C79.7229 104.444 79.291 104.611 78.8074 104.686C78.3342 104.763 77.8155 104.743 77.2513 104.627ZM77.5029 103.404C78.276 103.564 78.9041 103.475 79.3871 103.139C79.8806 102.805 80.2214 102.287 80.4094 101.585C80.5353 101.132 80.6358 100.749 80.7108 100.438C80.7983 100.119 80.8754 99.7969 80.9421 99.473C81.0109 99.1387 81.0671 98.8127 81.1107 98.4949C81.1669 98.1689 81.2256 97.778 81.2867 97.3223C81.3912 96.6033 81.2827 95.9929 80.9612 95.4911C80.6502 94.9915 80.1082 94.6621 79.335 94.503C78.5619 94.3439 77.9286 94.4313 77.4351 94.7654C76.9521 95.1015 76.6166 95.6206 76.4286 96.3224C76.3048 96.7652 76.1991 97.1464 76.1115 97.466C76.0366 97.7772 75.9647 98.1 75.8959 98.4344C75.8292 98.7582 75.7678 99.0832 75.7116 99.4092C75.6679 99.727 75.6145 100.119 75.5512 100.585C75.4468 101.304 75.5501 101.913 75.8611 102.413C76.1825 102.915 76.7298 103.245 77.5029 103.404ZM88.0053 106.84C87.4411 106.724 86.9516 106.536 86.5367 106.277C86.1323 106.019 85.8068 105.696 85.56 105.308C85.3879 105.033 85.2485 104.705 85.1419 104.323C85.0374 103.931 84.9953 103.422 85.0155 102.794C85.0462 102.169 85.1626 101.365 85.3648 100.383C85.5669 99.4012 85.7773 98.6169 85.9961 98.0303C86.2253 97.4458 86.4652 96.9942 86.716 96.6756C86.9667 96.3569 87.2243 96.1105 87.4889 95.9362C87.869 95.6769 88.2956 95.5088 88.7688 95.4319C89.2525 95.3572 89.7764 95.3779 90.3406 95.494C90.9048 95.6102 91.389 95.797 91.7934 96.0544C92.2083 96.3141 92.5391 96.6381 92.7859 97.0265C92.9705 97.2932 93.1099 97.6214 93.204 98.011C93.3085 98.4028 93.3454 98.9113 93.3147 99.5366C93.2944 100.164 93.1832 100.969 92.9811 101.951C92.779 102.933 92.5633 103.716 92.3341 104.301C92.1153 104.887 91.8806 105.34 91.6299 105.659C91.3918 105.969 91.1341 106.215 90.857 106.398C90.4769 106.657 90.045 106.824 89.5613 106.899C89.0881 106.976 88.5694 106.956 88.0053 106.84ZM88.2569 105.618C89.03 105.777 89.6581 105.688 90.1411 105.352C90.6346 105.018 90.9753 104.5 91.1633 103.798C91.2893 103.345 91.3897 102.963 91.4647 102.652C91.5523 102.332 91.6294 102.01 91.696 101.686C91.7648 101.352 91.8211 101.026 91.8647 100.708C91.9209 100.382 91.9796 99.9915 92.0407 99.5358C92.1451 98.8167 92.0366 98.2063 91.7152 97.7045C91.4042 97.2049 90.8621 96.8756 90.089 96.7164C89.3159 96.5573 88.6826 96.6447 88.1891 96.9788C87.7061 97.315 87.3705 97.834 87.1825 98.5358C87.0587 98.9786 86.953 99.3598 86.8655 99.6794C86.7905 99.9907 86.7186 100.313 86.6498 100.648C86.5832 100.972 86.5217 101.297 86.4655 101.623C86.4219 101.94 86.3684 102.332 86.3052 102.798C86.2007 103.518 86.304 104.127 86.615 104.626C86.9364 105.128 87.4837 105.459 88.2569 105.618ZM95.3068 108.147L97.5648 97.177L98.6304 97.3963L101.458 106.914C101.485 106.995 101.526 107.031 101.583 107.021C101.641 107.001 101.673 106.953 101.678 106.877L101.721 105.792L103.254 98.3479L104.507 98.6059L102.249 109.576L100.996 109.318L98.2909 100.316C98.2684 100.213 98.2237 100.166 98.1567 100.174C98.1002 100.184 98.0686 100.232 98.0618 100.318L98.0089 101.369L96.5606 108.405L95.3068 108.147Z" fill="white"/>
<!-- <path d="M85.8833 0.53129C85.6245 0.0434296 85.0191 -0.142208 84.5313 0.116657L76.5811 4.3351C76.0933 4.59396 75.9076 5.1993 76.1665 5.68716C76.4254 6.17502 77.0307 6.36066 77.5186 6.1018L84.5854 2.35207L88.3351 9.41886C88.594 9.90672 89.1993 10.0924 89.6872 9.8335C90.175 9.57463 90.3607 8.96929 90.1018 8.48143L85.8833 0.53129ZM62.9561 76.2932L85.9561 1.2932L84.0439 0.706816L61.0439 75.7068L62.9561 76.2932Z" fill="white"/> -->
</svg>
