<svg width="238" height="133" viewBox="0 0 238 133" fill="none" xmlns="http://www.w3.org/2000/svg">
<path d="M13.9203 95.0197C13.3469 95.0735 12.8238 95.0369 12.3512 94.9098C11.8892 94.7817 11.4835 94.568 11.134 94.2687C10.8891 94.056 10.6599 93.7829 10.4465 93.4493C10.2321 93.1052 10.0429 92.6301 9.87887 92.0241C9.7255 91.4171 9.60199 90.6145 9.50834 89.6162C9.41469 88.6179 9.38676 87.8063 9.42456 87.1814C9.47297 86.5555 9.57051 86.0535 9.71718 85.6755C9.86384 85.2975 10.0382 84.9865 10.2403 84.7425C10.528 84.3834 10.8869 84.098 11.317 83.8862C11.7578 83.6735 12.2649 83.5402 12.8384 83.4864C13.4118 83.4326 13.9296 83.4697 14.3915 83.5978C14.8642 83.7249 15.2752 83.9381 15.6247 84.2374C15.8792 84.4385 16.1084 84.7116 16.3122 85.0568C16.5266 85.4009 16.7105 85.8765 16.8639 86.4835C17.0279 87.0895 17.1567 87.8916 17.2503 88.8899C17.344 89.8882 17.3666 90.7003 17.3182 91.3262C17.2804 91.9512 17.1882 92.4526 17.0415 92.8306C16.9045 93.197 16.7301 93.508 16.5184 93.7636C16.2307 94.1227 15.8664 94.4086 15.4257 94.6214C14.9956 94.8332 14.4938 94.9659 13.9203 95.0197ZM13.8038 93.7772C14.5897 93.7035 15.1644 93.4353 15.5282 92.9726C15.9025 92.509 16.077 91.9141 16.0517 91.1879C16.0398 90.7176 16.0241 90.3227 16.0049 90.0031C15.9952 89.6719 15.975 89.3417 15.9441 89.0125C15.9122 88.6726 15.8707 88.3444 15.8196 88.0278C15.7781 87.6996 15.72 87.3086 15.6453 86.8549C15.535 86.1368 15.2529 85.5847 14.7989 85.1987C14.3555 84.8118 13.7408 84.6552 12.9549 84.7289C12.169 84.8027 11.5889 85.0713 11.2146 85.535C10.8509 85.9977 10.6817 86.5921 10.7069 87.3182C10.7179 87.7779 10.7282 88.1733 10.7379 88.5045C10.7571 88.8241 10.7827 89.1538 10.8146 89.4937C10.8455 89.8229 10.8817 90.1516 10.9232 90.4798C10.9743 90.7964 11.0377 91.1869 11.1134 91.6512C11.2237 92.3694 11.5005 92.9219 11.9439 93.3089C12.3979 93.6948 13.0179 93.8509 13.8038 93.7772ZM21.2851 94.136L20.239 82.9849L21.3222 82.8833L26.8072 91.1592C26.8567 91.2295 26.9069 91.2516 26.9581 91.2254C27.0082 91.1885 27.0244 91.1335 27.0068 91.0601L26.7315 90.0092L26.0216 82.4425L27.296 82.3229L28.3421 93.4739L27.0677 93.5935L21.8506 85.7746C21.7992 85.683 21.7426 85.6508 21.6808 85.678C21.6297 85.7043 21.6135 85.7594 21.6321 85.8433L21.8885 86.8638L22.5595 94.0164L21.2851 94.136ZM32.3254 93.1003L31.2793 81.9492L37.6991 81.347L37.8156 82.5895L32.6384 83.0752L32.9866 86.7869L37.893 86.3266L38.0096 87.5692L33.1032 88.0294L33.4514 91.7411L38.6286 91.2554L38.7452 92.498L32.3254 93.1003ZM50.9098 91.5496C50.1664 91.6194 49.5114 91.5469 48.9449 91.3322C48.3784 91.1175 47.9109 90.7596 47.5425 90.2585C47.1837 89.7458 46.9351 89.0941 46.7966 88.3036C46.7465 87.9976 46.6919 87.6439 46.6328 87.2423C46.5737 86.8407 46.5287 86.4753 46.4978 86.1461C46.4659 85.8063 46.4422 85.4389 46.4265 85.0439C46.4099 84.6384 46.3978 84.2806 46.3901 83.9707C46.3781 83.1575 46.5012 82.4711 46.7594 81.9112C47.0282 81.3503 47.4209 80.9117 47.9376 80.5954C48.4544 80.279 49.0844 80.086 49.8278 80.0163C50.2845 79.9734 50.7385 80.0165 51.1898 80.1456C51.6402 80.2641 52.0662 80.4652 52.4678 80.7489L52.1741 81.9014C51.8296 81.6551 51.4704 81.4799 51.0963 81.3757C50.7213 81.2609 50.3373 81.222 49.9444 81.2588C49.1797 81.3306 48.6049 81.5987 48.22 82.0634C47.8457 82.5271 47.6708 83.1756 47.6954 84.0089C47.71 84.3932 47.7212 84.7404 47.7288 85.0503C47.7471 85.3593 47.7722 85.6837 47.8041 86.0236C47.835 86.3528 47.8706 86.6762 47.9112 86.9938C47.9613 87.2998 48.0149 87.6429 48.072 88.0233C48.2028 88.8467 48.4953 89.4513 48.9493 89.8373C49.4139 90.2222 50.0286 90.3788 50.7932 90.3071C51.1862 90.2702 51.5567 90.1658 51.9048 89.9939C52.252 89.8113 52.5719 89.5671 52.8646 89.261L53.3674 90.3388C53.0256 90.6923 52.645 90.9744 52.2255 91.1851C51.805 91.3853 51.3665 91.5068 50.9098 91.5496ZM59.881 90.708C59.3075 90.7618 58.7845 90.7252 58.3119 90.5981C57.8499 90.47 57.4442 90.2563 57.0947 89.957C56.8498 89.7443 56.6206 89.4711 56.4072 89.1376C56.1927 88.7935 56.0035 88.3184 55.8396 87.7124C55.6862 87.1054 55.5627 86.3028 55.469 85.3045C55.3754 84.3062 55.3475 83.4946 55.3852 82.8697C55.4337 82.2437 55.5312 81.7418 55.6779 81.3637C55.8245 80.9857 55.9989 80.6747 56.201 80.4308C56.4887 80.0717 56.8476 79.7863 57.2777 79.5745C57.7185 79.3617 58.2256 79.2285 58.799 79.1747C59.3725 79.1209 59.8903 79.158 60.3522 79.2861C60.8248 79.4131 61.2359 79.6263 61.5854 79.9257C61.8399 80.1268 62.0691 80.3999 62.2729 80.745C62.4873 81.0892 62.6712 81.5648 62.8246 82.1718C62.9886 82.7778 63.1174 83.5799 63.211 84.5782C63.3047 85.5765 63.3273 86.3886 63.2789 87.0145C63.2411 87.6394 63.1489 88.1409 63.0022 88.5189C62.8652 88.8853 62.6908 89.1963 62.4791 89.4519C62.1913 89.811 61.8271 90.0969 61.3864 90.3097C60.9563 90.5214 60.4545 90.6542 59.881 90.708ZM59.7645 89.4655C60.5503 89.3917 61.1251 89.1235 61.4889 88.6609C61.8632 88.1972 62.0377 87.6023 62.0124 86.8762C62.0005 86.4059 61.9848 86.011 61.9656 85.6914C61.9559 85.3602 61.9357 85.0299 61.9048 84.7007C61.8729 84.3609 61.8314 84.0327 61.7803 83.716C61.7388 83.3878 61.6807 82.9969 61.606 82.5432C61.4957 81.825 61.2136 81.273 60.7596 80.887C60.3161 80.5001 59.7015 80.3435 58.9156 80.4172C58.1297 80.4909 57.5496 80.7596 57.1753 81.2233C56.8116 81.6859 56.6424 82.2803 56.6676 83.0065C56.6786 83.4661 56.6889 83.8616 56.6986 84.1928C56.7178 84.5124 56.7434 84.8421 56.7753 85.1819C56.8062 85.5112 56.8424 85.8399 56.8839 86.1681C56.935 86.4847 56.9984 86.8752 57.0741 87.3395C57.1844 88.0576 57.4612 88.6102 57.9046 88.9971C58.3586 89.3831 58.9786 89.5392 59.7645 89.4655ZM66.453 89.8986L66.3395 88.6879L68.2511 88.5086L67.4321 79.7789L65.5205 79.9583L65.4069 78.7476L70.5523 78.2649L70.6659 79.4756L68.7543 79.6549L69.5733 88.3846L71.4849 88.2052L71.5984 89.4159L66.453 89.8986ZM74.9414 89.1023L73.8953 77.9513L74.9785 77.8496L80.4635 86.1255C80.5129 86.1959 80.5632 86.2179 80.6143 86.1917C80.6644 86.1549 80.6807 86.0998 80.6631 86.0264L80.3877 84.9756L79.6779 77.4088L80.9523 77.2892L81.9984 88.4403L80.724 88.5598L75.5069 80.7409C75.4554 80.6493 75.3988 80.6171 75.3371 80.6444C75.286 80.6706 75.2698 80.7257 75.2883 80.8096L75.5448 81.8302L76.2158 88.9827L74.9414 89.1023ZM85.9817 88.0666L85.8322 86.4736L87.1863 86.3465L87.3357 87.9395L85.9817 88.0666ZM99.9768 86.9465C99.4034 87.0003 98.8803 86.9636 98.4077 86.8366C97.9457 86.7085 97.54 86.4948 97.1905 86.1955C96.9456 85.9827 96.7164 85.7096 96.503 85.3761C96.2886 85.0319 96.0994 84.5569 95.9354 83.9509C95.782 83.3439 95.6585 82.5412 95.5649 81.543C95.4712 80.5447 95.4433 79.7331 95.4811 79.1081C95.5295 78.4822 95.627 77.9802 95.7737 77.6022C95.9204 77.2242 96.0947 76.9132 96.2968 76.6693C96.5846 76.3102 96.9435 76.0247 97.3736 75.813C97.8143 75.6002 98.3214 75.4669 98.8949 75.4131C99.4683 75.3593 99.9861 75.3965 100.448 75.5245C100.921 75.6516 101.332 75.8648 101.681 76.1642C101.936 76.3653 102.165 76.6384 102.369 76.9835C102.583 77.3277 102.767 77.8032 102.92 78.4102C103.084 79.0162 103.213 79.8184 103.307 80.8167C103.401 81.8149 103.423 82.627 103.375 83.253C103.337 83.8779 103.245 84.3794 103.098 84.7574C102.961 85.1238 102.787 85.4348 102.575 85.6903C102.287 86.0494 101.923 86.3354 101.482 86.5481C101.052 86.7599 100.55 86.8927 99.9768 86.9465ZM99.8603 85.7039C100.646 85.6302 101.221 85.362 101.585 84.8994C101.959 84.4357 102.134 83.8408 102.108 83.1147C102.096 82.6444 102.081 82.2494 102.061 81.9298C102.052 81.5986 102.031 81.2684 102.001 80.9392C101.969 80.5994 101.927 80.2711 101.876 79.9545C101.835 79.6263 101.776 79.2353 101.702 78.7817C101.592 78.0635 101.309 77.5114 100.855 77.1255C100.412 76.7385 99.7973 76.5819 99.0114 76.6557C98.2255 76.7294 97.6454 76.9981 97.2711 77.4617C96.9074 77.9244 96.7382 78.5188 96.7635 79.245C96.7744 79.7046 96.7847 80.1 96.7944 80.4313C96.8137 80.7508 96.8392 81.0806 96.8711 81.4204C96.902 81.7496 96.9382 82.0784 96.9797 82.4066C97.0308 82.7232 97.0942 83.1136 97.1699 83.5779C97.2802 84.2961 97.557 84.8487 98.0004 85.2356C98.4544 85.6216 99.0744 85.7777 99.8603 85.7039ZM107.342 86.0627L106.296 74.9117L107.379 74.8101L112.864 83.0859C112.913 83.1563 112.963 83.1784 113.015 83.1521C113.065 83.1153 113.081 83.0602 113.063 82.9869L112.788 81.936L112.078 74.3692L113.353 74.2496L114.399 85.4007L113.124 85.5202L107.907 77.7014C107.856 77.6098 107.799 77.5776 107.737 77.6048C107.686 77.631 107.67 77.6861 107.689 77.7701L107.945 78.7906L108.616 85.9432L107.342 86.0627ZM118.382 85.027L117.336 73.876L123.756 73.2737L123.872 74.5162L118.695 75.0019L119.043 78.7136L123.95 78.2533L124.066 79.4959L119.16 79.9562L119.508 83.6679L124.685 83.1822L124.802 84.4247L118.382 85.027ZM133.555 83.6035L132.509 72.4525L138.754 71.8667L138.87 73.1092L133.948 73.571L134.296 77.2827L138.804 76.8598L138.921 78.1023L134.413 78.5252L134.877 83.4795L133.555 83.6035ZM142.037 82.8078L144.13 71.3623L146.041 71.183L150.257 82.0367L148.903 82.1637L145.529 73.256L145.322 72.4236C145.305 72.3609 145.265 72.3325 145.201 72.3385C145.148 72.3435 145.119 72.3783 145.115 72.443L145.051 73.3008L143.391 82.6808L142.037 82.8078ZM143.478 79.6675L143.718 78.4558L147.796 78.0732L148.257 79.2191L143.478 79.6675ZM142.423 72.6956L142.313 71.5327L144.56 71.322L144.669 72.4849L142.423 72.6956ZM153.131 81.767L152.085 70.616L153.2 70.5114L156.314 75.2654C156.376 75.356 156.439 75.3983 156.503 75.3923C156.577 75.3853 156.631 75.332 156.664 75.2325L158.839 69.9824L159.955 69.8777L161.001 81.0288L159.726 81.1483L159.045 73.8842L159.11 72.8657C159.114 72.7904 159.088 72.7446 159.033 72.7283C158.988 72.7111 158.943 72.7474 158.898 72.8373L157.068 77.1391L156.272 77.2138L153.673 73.3275C153.623 73.2465 153.572 73.2192 153.521 73.2454C153.47 73.2716 153.453 73.3214 153.471 73.3947L153.724 74.3834L154.406 81.6475L153.131 81.767ZM164.343 80.7152L164.23 79.5045L166.141 79.3252L165.322 70.5955L163.411 70.7749L163.297 69.5642L168.443 69.0815L168.556 70.2921L166.644 70.4715L167.463 79.2012L169.375 79.0218L169.489 80.2325L164.343 80.7152ZM172.832 79.9189L171.785 68.7678L173.108 68.6438L174.037 78.5523L178.004 78.1802L178.12 79.4227L172.832 79.9189ZM181.486 79.1069L180.993 73.85L177.238 68.2563L178.736 68.1158L181.14 71.9882L181.408 72.6219C181.435 72.673 181.474 72.6961 181.527 72.6911C181.591 72.6851 181.626 72.6551 181.631 72.601L181.777 71.9284L183.419 67.6764L184.917 67.536L182.268 73.7305L182.761 78.9874L181.486 79.1069ZM186.449 78.6414L186.3 77.0484L187.654 76.9213L187.803 78.5143L186.449 78.6414ZM200.444 77.5213C199.871 77.5751 199.348 77.5384 198.875 77.4114C198.413 77.2833 198.008 77.0696 197.658 76.7702C197.413 76.5575 197.184 76.2844 196.971 75.9509C196.756 75.6067 196.567 75.1317 196.403 74.5257C196.25 73.9187 196.126 73.116 196.032 72.1177C195.939 71.1195 195.911 70.3079 195.949 69.6829C195.997 69.057 196.095 68.555 196.241 68.177C196.388 67.799 196.562 67.488 196.764 67.2441C197.052 66.885 197.411 66.5995 197.841 66.3878C198.282 66.175 198.789 66.0417 199.362 65.9879C199.936 65.9341 200.454 65.9712 200.916 66.0993C201.388 66.2264 201.799 66.4396 202.149 66.7389C202.403 66.94 202.633 67.2132 202.836 67.5583C203.051 67.9024 203.235 68.378 203.388 68.985C203.552 69.591 203.681 70.3932 203.774 71.3914C203.868 72.3897 203.891 73.2018 203.842 73.8278C203.805 74.4527 203.712 74.9542 203.566 75.3322C203.429 75.6986 203.254 76.0096 203.042 76.2651C202.755 76.6242 202.391 76.9102 201.95 77.1229C201.52 77.3347 201.018 77.4675 200.444 77.5213ZM200.328 76.2787C201.114 76.205 201.689 75.9368 202.052 75.4741C202.427 75.0105 202.601 74.4156 202.576 73.6894C202.564 73.2192 202.548 72.8242 202.529 72.5046C202.519 72.1734 202.499 71.8432 202.468 71.514C202.436 71.1741 202.395 70.8459 202.344 70.5293C202.302 70.2011 202.244 69.8101 202.169 69.3565C202.059 68.6383 201.777 68.0862 201.323 67.7003C200.88 67.3133 200.265 67.1567 199.479 67.2305C198.693 67.3042 198.113 67.5729 197.739 68.0365C197.375 68.4992 197.206 69.0936 197.231 69.8197C197.242 70.2794 197.252 70.6748 197.262 71.006C197.281 71.3256 197.307 71.6554 197.339 71.9952C197.37 72.3244 197.406 72.6531 197.447 72.9814C197.498 73.298 197.562 73.6884 197.638 74.1527C197.748 74.8709 198.025 75.4235 198.468 75.8104C198.922 76.1963 199.542 76.3525 200.328 76.2787ZM207.809 76.6375L206.763 65.4865L207.846 65.3849L213.331 73.6607C213.381 73.7311 213.431 73.7531 213.482 73.7269C213.532 73.6901 213.549 73.635 213.531 73.5616L213.256 72.5108L212.546 64.944L213.82 64.8244L214.866 75.9755L213.592 76.095L208.375 68.2761C208.323 68.1845 208.267 68.1524 208.205 68.1796C208.154 68.2058 208.138 68.2609 208.156 68.3449L208.413 69.3654L209.084 76.518L207.809 76.6375ZM218.85 75.6018L217.803 64.4507L224.223 63.8485L224.34 65.091L219.163 65.5767L219.511 69.2884L224.417 68.8281L224.534 70.0707L219.627 70.531L219.975 74.2427L225.153 73.757L225.269 74.9995L218.85 75.6018ZM66.3011 113.014L65.255 101.863L66.3701 101.758L69.4837 106.512C69.5458 106.603 69.6087 106.645 69.6724 106.639C69.7468 106.632 69.8007 106.579 69.8342 106.479L72.0093 101.229L73.1244 101.125L74.1705 112.276L72.8961 112.395L72.2147 105.131L72.2798 104.113C72.2835 104.037 72.2577 103.991 72.2027 103.975C72.1582 103.958 72.1134 103.994 72.0682 104.084L70.238 108.386L69.4415 108.461L66.8432 104.574C66.7927 104.493 66.742 104.466 66.6909 104.492C66.6397 104.518 66.623 104.568 66.6406 104.642L66.894 105.63L67.5755 112.894L66.3011 113.014ZM81.5614 111.775C80.9879 111.829 80.4648 111.792 79.9922 111.665C79.5302 111.537 79.1245 111.323 78.775 111.024C78.5301 110.811 78.3009 110.538 78.0875 110.205C77.8731 109.861 77.6839 109.385 77.5199 108.779C77.3665 108.172 77.243 107.37 77.1494 106.372C77.0557 105.373 77.0278 104.562 77.0656 103.937C77.114 103.311 77.2115 102.809 77.3582 102.431C77.5049 102.053 77.6792 101.742 77.8813 101.498C78.1691 101.139 78.528 100.853 78.9581 100.642C79.3988 100.429 79.9059 100.296 80.4794 100.242C81.0529 100.188 81.5706 100.225 82.0326 100.353C82.5052 100.48 82.9162 100.693 83.2657 100.993C83.5203 101.194 83.7494 101.467 83.9532 101.812C84.1677 102.156 84.3515 102.632 84.5049 103.239C84.6689 103.845 84.7977 104.647 84.8914 105.645C84.985 106.644 85.0076 107.456 84.9592 108.082C84.9214 108.707 84.8292 109.208 84.6825 109.586C84.5455 109.952 84.3711 110.263 84.1594 110.519C83.8717 110.878 83.5075 111.164 83.0667 111.377C82.6366 111.589 82.1348 111.721 81.5614 111.775ZM81.4448 110.533C82.2307 110.459 82.8055 110.191 83.1692 109.728C83.5435 109.264 83.718 108.669 83.6928 107.943C83.6808 107.473 83.6652 107.078 83.6459 106.758C83.6363 106.427 83.616 106.097 83.5851 105.768C83.5532 105.428 83.5117 105.1 83.4606 104.783C83.4191 104.455 83.361 104.064 83.2863 103.61C83.176 102.892 82.8939 102.34 82.4399 101.954C81.9965 101.567 81.3818 101.411 80.5959 101.484C79.8101 101.558 79.23 101.827 78.8556 102.29C78.4919 102.753 78.3227 103.347 78.348 104.074C78.3589 104.533 78.3693 104.929 78.3789 105.26C78.3982 105.579 78.4237 105.909 78.4556 106.249C78.4865 106.578 78.5227 106.907 78.5642 107.235C78.6153 107.552 78.6788 107.942 78.7545 108.407C78.8647 109.125 79.1415 109.677 79.5849 110.064C80.0389 110.45 80.6589 110.606 81.4448 110.533ZM92.4927 110.75C91.9193 110.803 91.3962 110.767 90.9236 110.64C90.4616 110.512 90.0559 110.298 89.7064 109.999C89.4615 109.786 89.2323 109.513 89.0189 109.179C88.8045 108.835 88.6153 108.36 88.4513 107.754C88.2979 107.147 88.1744 106.344 88.0807 105.346C87.9871 104.348 87.9592 103.536 87.997 102.911C88.0454 102.285 88.1429 101.783 88.2896 101.405C88.4362 101.027 88.6106 100.716 88.8127 100.472C89.1004 100.113 89.4593 99.8278 89.8894 99.6161C90.3302 99.4033 90.8373 99.27 91.4108 99.2162C91.9842 99.1624 92.502 99.1996 92.9639 99.3276C93.4366 99.4547 93.8476 99.6679 94.1971 99.9673C94.4516 100.168 94.6808 100.441 94.8846 100.787C95.099 101.131 95.2829 101.606 95.4363 102.213C95.6003 102.819 95.7291 103.621 95.8227 104.62C95.9164 105.618 95.939 106.43 95.8906 107.056C95.8528 107.681 95.7606 108.182 95.6139 108.56C95.4769 108.927 95.3025 109.238 95.0908 109.493C94.8031 109.853 94.4388 110.138 93.9981 110.351C93.568 110.563 93.0662 110.696 92.4927 110.75ZM92.3762 109.507C93.1621 109.433 93.7368 109.165 94.1006 108.702C94.4749 108.239 94.6494 107.644 94.6241 106.918C94.6122 106.447 94.5965 106.053 94.5773 105.733C94.5676 105.402 94.5474 105.072 94.5165 104.742C94.4846 104.402 94.4431 104.074 94.392 103.758C94.3505 103.429 94.2924 103.038 94.2177 102.585C94.1074 101.867 93.8253 101.315 93.3713 100.929C92.9279 100.542 92.3132 100.385 91.5273 100.459C90.7414 100.532 90.1613 100.801 89.787 101.265C89.4233 101.728 89.2541 102.322 89.2793 103.048C89.2903 103.508 89.3006 103.903 89.3103 104.234C89.3295 104.554 89.3551 104.884 89.387 105.224C89.4179 105.553 89.4541 105.881 89.4956 106.21C89.5467 106.526 89.6101 106.917 89.6858 107.381C89.7961 108.099 90.0729 108.652 90.5163 109.039C90.9703 109.425 91.5903 109.581 92.3762 109.507ZM99.8575 109.866L98.8114 98.7148L99.8946 98.6132L105.38 106.889C105.429 106.959 105.479 106.981 105.53 106.955C105.581 106.918 105.597 106.863 105.579 106.79L105.304 105.739L104.594 98.1723L105.868 98.0527L106.915 109.204L105.64 109.323L100.423 101.504C100.372 101.413 100.315 101.381 100.253 101.408C100.202 101.434 100.186 101.489 100.204 101.573L100.461 102.594L101.132 109.746L99.8575 109.866ZM115.183 104.877L115.079 103.761L122.088 103.104L122.193 104.219L115.183 104.877ZM133.799 109.092L133.523 106.145L134.638 106.04L134.915 108.988L133.799 109.092ZM132.573 96.0136L132.305 93.1621L133.42 93.0575L133.688 95.909L132.573 96.0136ZM133.766 106.846C133.15 106.903 132.546 106.863 131.954 106.726C131.362 106.578 130.854 106.358 130.43 106.066L130.803 104.906C131.183 105.181 131.619 105.381 132.113 105.506C132.607 105.631 133.098 105.671 133.587 105.625C134.341 105.554 134.891 105.31 135.237 104.891C135.584 104.473 135.729 103.962 135.672 103.356C135.624 102.846 135.444 102.413 135.132 102.057C134.82 101.7 134.326 101.516 133.65 101.505L132.878 101.497C132.277 101.489 131.753 101.383 131.305 101.179C130.858 100.974 130.503 100.675 130.241 100.282C129.978 99.8781 129.82 99.3894 129.766 98.816C129.709 98.2106 129.808 97.6604 130.061 97.1652C130.314 96.6594 130.698 96.2483 131.215 95.932C131.741 95.6041 132.382 95.4048 133.136 95.334C133.603 95.2902 134.087 95.3091 134.587 95.3907C135.088 95.4723 135.563 95.6312 136.014 95.8675L135.72 97.02C135.313 96.7903 134.897 96.6418 134.473 96.5745C134.049 96.5071 133.646 96.4914 133.264 96.5273C132.499 96.599 131.926 96.8295 131.545 97.2189C131.173 97.5966 131.013 98.0615 131.065 98.6138C131.118 99.1766 131.311 99.587 131.646 99.8448C131.981 100.103 132.406 100.234 132.921 100.24L133.693 100.247C134.669 100.263 135.434 100.534 135.987 101.061C136.55 101.586 136.873 102.285 136.955 103.155C137.015 103.793 136.925 104.38 136.686 104.916C136.458 105.452 136.097 105.893 135.605 106.239C135.111 106.575 134.498 106.777 133.766 106.846ZM140.684 106.036L139.638 94.8847L142.538 94.6127C143.823 94.4921 144.831 94.7297 145.561 95.3254C146.292 95.921 146.758 96.7773 146.959 97.894C147.008 98.1788 147.053 98.4906 147.095 98.8294C147.149 99.1672 147.19 99.4902 147.218 99.7981C147.247 100.106 147.267 100.431 147.278 100.773C147.299 101.114 147.312 101.428 147.318 101.717C147.339 102.851 147.04 103.779 146.422 104.501C145.815 105.222 144.869 105.643 143.584 105.764L140.684 106.036ZM141.851 104.769L143.476 104.617C144.411 104.529 145.067 104.216 145.445 103.677C145.834 103.137 146.023 102.476 146.014 101.695C146.012 101.331 145.999 101.021 145.975 100.766C145.962 100.511 145.941 100.229 145.912 99.9207C145.883 99.6127 145.852 99.3318 145.817 99.0779C145.793 98.823 145.748 98.5165 145.683 98.1584C145.546 97.3891 145.237 96.7754 144.755 96.3171C144.283 95.8578 143.58 95.6773 142.647 95.7756L141.022 95.928L141.851 104.769ZM154.809 104.903C154.236 104.957 153.713 104.921 153.24 104.794C152.778 104.665 152.372 104.452 152.023 104.152C151.778 103.94 151.549 103.667 151.335 103.333C151.121 102.989 150.932 102.514 150.768 101.908C150.614 101.301 150.491 100.498 150.397 99.4999C150.303 98.5017 150.276 97.6901 150.313 97.0651C150.362 96.4392 150.459 95.9372 150.606 95.5592C150.753 95.1812 150.927 94.8702 151.129 94.6263C151.417 94.2672 151.776 93.9817 152.206 93.77C152.647 93.5572 153.154 93.4239 153.727 93.3701C154.301 93.3163 154.818 93.3534 155.28 93.4815C155.753 93.6086 156.164 93.8218 156.513 94.1211C156.768 94.3222 156.997 94.5954 157.201 94.9405C157.415 95.2846 157.599 95.7602 157.753 96.3672C157.917 96.9732 158.045 97.7754 158.139 98.7736C158.233 99.7719 158.255 100.584 158.207 101.21C158.169 101.835 158.077 102.336 157.93 102.714C157.793 103.081 157.619 103.392 157.407 103.647C157.119 104.006 156.755 104.292 156.314 104.505C155.884 104.717 155.383 104.85 154.809 104.903ZM154.693 103.661C155.478 103.587 156.053 103.319 156.417 102.856C156.791 102.393 156.966 101.798 156.941 101.072C156.929 100.601 156.913 100.206 156.894 99.8868C156.884 99.5556 156.864 99.2254 156.833 98.8962C156.801 98.5563 156.759 98.2281 156.708 97.9115C156.667 97.5833 156.609 97.1923 156.534 96.7387C156.424 96.0205 156.142 95.4684 155.688 95.0825C155.244 94.6955 154.63 94.5389 153.844 94.6127C153.058 94.6864 152.478 94.9551 152.103 95.4187C151.74 95.8814 151.57 96.4758 151.596 97.2019C151.607 97.6616 151.617 98.057 151.627 98.3882C151.646 98.7078 151.672 99.0376 151.703 99.3774C151.734 99.7066 151.77 100.035 151.812 100.364C151.863 100.68 151.927 101.071 152.002 101.535C152.112 102.253 152.389 102.806 152.833 103.193C153.287 103.579 153.907 103.735 154.693 103.661ZM162.174 104.02L161.128 92.8687L162.211 92.7671L167.696 101.043C167.745 101.113 167.796 101.135 167.847 101.109C167.897 101.072 167.913 101.017 167.896 100.944L167.62 99.893L166.91 92.3262L168.185 92.2066L169.231 103.358L167.956 103.477L162.739 95.6583C162.688 95.5667 162.631 95.5346 162.57 95.5618C162.519 95.588 162.502 95.6431 162.521 95.7271L162.777 96.7476L163.448 103.9L162.174 104.02ZM173.028 99.6267L172.088 91.8404L173.442 91.7134L173.968 99.5385L173.028 99.6267ZM173.135 102.991L172.993 101.478L174.347 101.351L174.489 102.864L173.135 102.991Z" fill="white"/>
<!-- <path d="M136.707 0.292892C136.317 -0.0976295 135.683 -0.0976295 135.293 0.292892L128.929 6.65685C128.538 7.04738 128.538 7.68054 128.929 8.07107C129.319 8.46159 129.953 8.46159 130.343 8.07107L136 2.41422L141.657 8.07107C142.047 8.46159 142.681 8.46159 143.071 8.07107C143.462 7.68054 143.462 7.04738 143.071 6.65685L136.707 0.292892ZM137 57V1H135V57H137Z" fill="white"/> -->
</svg>
