<svg width="161" height="88" viewBox="0 0 161 88" fill="none" xmlns="http://www.w3.org/2000/svg">
<path d="M2.83136 68.1749L3.75411 57.013L10.0048 57.5297L9.90196 58.7735L4.97477 58.3662L4.66763 62.0815L9.18023 62.4545L9.07741 63.6983L4.56481 63.3252L4.15484 68.2843L2.83136 68.1749ZM12.2785 68.9559L13.2013 57.794L16.8369 58.0945C17.8574 58.1789 18.6318 58.5212 19.1601 59.1214C19.6991 59.7225 19.9269 60.5281 19.8434 61.5379C19.7819 62.2821 19.5444 62.8886 19.1311 63.3574C18.7177 63.8263 18.1793 64.1243 17.5159 64.2514C17.3644 64.271 17.3348 64.3702 17.4271 64.5491L17.8262 65.3527L18.9597 69.5082L17.5406 69.3909L16.1487 64.2829L13.9641 64.1023L13.5542 69.0614L12.2785 68.9559ZM14.0603 62.9382L16.4203 63.1333C17.0262 63.1834 17.5178 63.0635 17.8949 62.7736C18.273 62.4731 18.4866 62.0251 18.5358 61.4298C18.5903 60.7708 18.4567 60.2513 18.1349 59.8715C17.8139 59.4811 17.3505 59.2608 16.7446 59.2107L14.3846 59.0156L14.0603 62.9382ZM25.7603 70.2631C25.1862 70.2156 24.6777 70.088 24.2346 69.8801C23.8022 69.6731 23.4402 69.3916 23.1485 69.0357C22.9446 68.7834 22.7668 68.4744 22.6151 68.1086C22.4642 67.7323 22.3612 67.2314 22.3058 66.606C22.2611 65.9816 22.2801 65.1697 22.3627 64.1704C22.4453 63.1712 22.5599 62.3672 22.7066 61.7586C22.8638 61.1508 23.0478 60.6737 23.2584 60.3272C23.469 59.9807 23.6951 59.705 23.9368 59.5003C24.283 59.1971 24.6863 58.9789 25.1468 58.8457C25.618 58.7134 26.1406 58.671 26.7147 58.7185C27.2887 58.7659 27.7919 58.8931 28.2243 59.1001C28.6674 59.308 29.0347 59.5899 29.3264 59.9458C29.5418 60.1884 29.7196 60.4974 29.8598 60.8729C30.0107 61.2493 30.1085 61.7497 30.1532 62.3742C30.2085 62.9995 30.1949 63.8118 30.1122 64.8111C30.0296 65.8104 29.9097 66.6139 29.7524 67.2216C29.6058 67.8303 29.4272 68.3079 29.2166 68.6544C29.0175 68.9911 28.7913 69.2668 28.5381 69.4813C28.192 69.7845 27.7833 70.0022 27.3121 70.1345C26.8516 70.2677 26.3343 70.3105 25.7603 70.2631ZM25.8631 69.0193C26.6497 69.0844 27.2626 68.921 27.7017 68.5291C28.1515 68.1382 28.4275 67.5831 28.5298 66.8637C28.6003 66.3986 28.6541 66.007 28.6911 65.689C28.7396 65.3612 28.7775 65.0325 28.8047 64.703C28.8328 64.3628 28.8494 64.0324 28.8545 63.7117C28.8712 63.3813 28.8824 62.9862 28.8883 62.5265C28.9055 61.8001 28.7244 61.2072 28.345 60.7477C27.9762 60.2891 27.3985 60.0273 26.6118 59.9622C25.8252 59.8972 25.207 60.0601 24.7573 60.4511C24.3181 60.8429 24.0474 61.3985 23.9452 62.1178C23.8755 62.5723 23.8164 62.9634 23.7679 63.2912C23.7309 63.6093 23.6983 63.9384 23.6702 64.2785C23.643 64.6081 23.621 64.9381 23.6044 65.2685C23.5993 65.5892 23.5934 65.9847 23.5866 66.4551C23.5694 67.1814 23.7452 67.7739 24.114 68.2325C24.4934 68.692 25.0764 68.9543 25.8631 69.0193ZM33.166 70.6827L34.0888 59.5207L35.2049 59.613L37.438 64.8388C37.4832 64.9388 37.5378 64.9915 37.6015 64.9968C37.6759 65.0029 37.7384 64.9599 37.7888 64.8678L40.8497 60.0797L41.9659 60.1719L41.0431 71.3339L39.7675 71.2284L40.3686 63.9572L40.6111 62.9658C40.6279 62.8923 40.6106 62.8427 40.5592 62.817C40.5184 62.7922 40.4679 62.8202 40.4078 62.9008L37.8525 66.8156L37.0553 66.7497L35.1776 62.4685C35.1421 62.3799 35.0969 62.3441 35.042 62.3609C34.9871 62.3778 34.9619 62.4239 34.9663 62.4992L35.0428 63.5169L34.4417 70.7881L33.166 70.6827ZM49.5675 72.0386L49.6308 71.2732L54.8182 63.2894L55.4064 62.5835C55.4533 62.5338 55.4674 62.4922 55.4488 62.4585C55.4408 62.4258 55.4103 62.4072 55.3571 62.4028L51.7215 62.1022L51.6121 63.4257L50.4481 63.3295L50.6498 60.8898L57.1396 61.4263L57.0763 62.1917L51.9792 70.0545L51.3911 70.7604C51.3441 70.8101 51.3247 70.8513 51.3327 70.8841C51.3513 70.9177 51.3819 70.9363 51.4244 70.9398L56.3197 71.3445L56.2169 72.5883L49.5675 72.0386ZM59.4831 72.8583L60.4059 61.6963L66.8319 62.2276L66.7291 63.4713L61.5468 63.0429L61.2396 66.7583L66.1509 67.1643L66.0481 68.408L61.1368 68.002L60.8297 71.7173L66.012 72.1458L65.9092 73.3895L59.4831 72.8583ZM69.413 73.6792L70.3357 62.5172L73.9713 62.8178C74.9918 62.9022 75.7663 63.2445 76.2946 63.8447C76.8336 64.4458 77.0613 65.2513 76.9778 66.2612C76.9163 67.0053 76.6789 67.6118 76.2655 68.0807C75.8521 68.5496 75.3138 68.8476 74.6504 68.9747C74.4989 68.9943 74.4693 69.0935 74.5615 69.2724L74.9607 70.076L76.0942 74.2315L74.675 74.1142L73.2831 69.0061L71.0986 68.8255L70.6886 73.7846L69.413 73.6792ZM71.1948 67.6615L73.5548 67.8566C74.1607 67.9067 74.6522 67.7868 75.0294 67.4969C75.4075 67.1963 75.6211 66.7484 75.6703 66.1531C75.7248 65.494 75.5911 64.9746 75.2693 64.5948C74.9484 64.2043 74.485 63.9841 73.879 63.934L71.5191 63.7389L71.1948 67.6615ZM82.8947 74.9863C82.3207 74.9389 81.8122 74.8112 81.3691 74.6034C80.9367 74.3964 80.5746 74.1149 80.283 73.759C80.0791 73.5067 79.9013 73.1976 79.7495 72.8319C79.5987 72.4555 79.4956 71.9547 79.4403 71.3293C79.3956 70.7048 79.4145 69.893 79.4971 68.8937C79.5798 67.8945 79.6944 67.0905 79.841 66.4818C79.9983 65.8741 80.1822 65.3969 80.3928 65.0504C80.6034 64.7039 80.8296 64.4283 81.0713 64.2235C81.4174 63.9203 81.8208 63.7022 82.2813 63.569C82.7525 63.4367 83.2751 63.3943 83.8491 63.4417C84.4232 63.4892 84.9264 63.6164 85.3588 63.8234C85.8019 64.0313 86.1692 64.3132 86.4609 64.6691C86.6763 64.9117 86.8541 65.2207 86.9943 65.5962C87.1452 65.9726 87.2429 66.473 87.2876 67.0975C87.343 67.7228 87.3293 68.5351 87.2467 69.5344C87.1641 70.5336 87.0442 71.3371 86.8869 71.9449C86.7402 72.5536 86.5616 73.0311 86.351 73.3776C86.1519 73.7144 85.9258 73.99 85.6726 74.2046C85.3264 74.5077 84.9178 74.7255 84.4466 74.8578C83.9861 74.9909 83.4688 75.0338 82.8947 74.9863ZM82.9976 73.7426C83.7842 73.8076 84.3971 73.6442 84.8362 73.2524C85.2859 72.8615 85.5619 72.3063 85.6642 71.587C85.7348 71.1219 85.7886 70.7303 85.8256 70.4123C85.8741 70.0845 85.9119 69.7558 85.9392 69.4263C85.9673 69.0861 85.9839 68.7557 85.989 68.435C86.0056 68.1046 86.0169 67.7095 86.0228 67.2498C86.04 66.5234 85.8589 65.9304 85.4795 65.471C85.1107 65.0123 84.533 64.7505 83.7463 64.6855C82.9597 64.6205 82.3415 64.7834 81.8917 65.1744C81.4526 65.5662 81.1819 66.1218 81.0796 66.8411C81.01 67.2956 80.9509 67.6867 80.9024 68.0145C80.8654 68.3325 80.8328 68.6616 80.8047 69.0018C80.7774 69.3313 80.7555 69.6613 80.7389 69.9918C80.7338 70.3124 80.7279 70.7079 80.7211 71.1783C80.7038 71.9047 80.8796 72.4972 81.2484 72.9558C81.6279 73.4153 82.2109 73.6776 82.9976 73.7426ZM97.3447 75.9883L98.1646 66.0701L95.422 65.8434L95.5248 64.5996L102.35 65.1638L102.247 66.4076L99.4881 66.1795L98.6682 76.0977L97.3447 75.9883ZM107.359 77.0088C106.785 76.9613 106.276 76.8337 105.833 76.6258C105.401 76.4188 105.039 76.1373 104.747 75.7814C104.543 75.5291 104.365 75.2201 104.214 74.8543C104.063 74.4779 103.96 73.9771 103.904 73.3517C103.86 72.7273 103.879 71.9154 103.961 70.9161C104.044 69.9169 104.158 69.1129 104.305 68.5043C104.462 67.8965 104.646 67.4194 104.857 67.0729C105.067 66.7264 105.294 66.4507 105.535 66.2459C105.881 65.9428 106.285 65.7246 106.745 65.5914C107.217 65.4591 107.739 65.4167 108.313 65.4642C108.887 65.5116 109.39 65.6388 109.823 65.8458C110.266 66.0537 110.633 66.3356 110.925 66.6915C111.14 66.9341 111.318 67.2431 111.458 67.6186C111.609 67.995 111.707 68.4954 111.752 69.1199C111.807 69.7452 111.793 70.5575 111.711 71.5568C111.628 72.556 111.508 73.3596 111.351 73.9673C111.204 74.576 111.026 75.0536 110.815 75.4001C110.616 75.7368 110.39 76.0124 110.137 76.227C109.79 76.5302 109.382 76.7479 108.911 76.8802C108.45 77.0134 107.933 77.0562 107.359 77.0088ZM107.462 75.765C108.248 75.83 108.861 75.6667 109.3 75.2748C109.75 74.8839 110.026 74.3287 110.128 73.6094C110.199 73.1443 110.253 72.7527 110.29 72.4347C110.338 72.1069 110.376 71.7782 110.403 71.4487C110.431 71.1085 110.448 70.7781 110.453 70.4574C110.47 70.127 110.481 69.7319 110.487 69.2722C110.504 68.5458 110.323 67.9529 109.944 67.4934C109.575 67.0348 108.997 66.7729 108.21 66.7079C107.424 66.6429 106.806 66.8058 106.356 67.1968C105.917 67.5886 105.646 68.1442 105.544 68.8635C105.474 69.318 105.415 69.7091 105.366 70.0369C105.329 70.355 105.297 70.6841 105.269 71.0242C105.241 71.3538 105.22 71.6838 105.203 72.0142C105.198 72.3348 105.192 72.7304 105.185 73.2007C105.168 73.9271 105.344 74.5196 105.712 74.9782C106.092 75.4377 106.675 75.7 107.462 75.765ZM120.023 77.863L120.946 66.7011L122.269 66.8105L121.859 71.7696L126.228 72.1308L126.638 67.1717L127.962 67.2811L127.039 78.4431L125.715 78.3336L126.125 73.3746L121.756 73.0134L121.346 77.9725L120.023 77.863ZM131.027 78.7728L131.95 67.6108L138.376 68.1421L138.273 69.3858L133.091 68.9574L132.784 72.6727L137.695 73.0788L137.592 74.3225L132.681 73.9165L132.374 77.6318L137.556 78.0602L137.453 79.304L131.027 78.7728ZM140.957 79.5937L141.88 68.4317L145.515 68.7323C146.536 68.8167 147.31 69.159 147.839 69.7592C148.378 70.3603 148.605 71.1658 148.522 72.1757C148.46 72.9198 148.223 73.5263 147.81 73.9952C147.396 74.4641 146.858 74.7621 146.194 74.8892C146.043 74.9088 146.013 75.008 146.106 75.1869L146.505 75.9905L147.638 80.146L146.219 80.0287L144.827 74.9206L142.643 74.74L142.233 79.6991L140.957 79.5937ZM142.739 73.576L145.099 73.7711C145.705 73.8212 146.196 73.7013 146.573 73.4114C146.952 73.1108 147.165 72.6629 147.214 72.0676C147.269 71.4085 147.135 70.8891 146.813 70.5093C146.492 70.1188 146.029 69.8986 145.423 69.8485L143.063 69.6534L142.739 73.576ZM154.439 80.9008C153.865 80.8534 153.356 80.7257 152.913 80.5178C152.481 80.3108 152.119 80.0294 151.827 79.6735C151.623 79.4212 151.445 79.1121 151.294 78.7464C151.143 78.37 151.04 77.8692 150.984 77.2438C150.94 76.6193 150.959 75.8075 151.041 74.8082C151.124 73.8089 151.238 73.005 151.385 72.3963C151.542 71.7886 151.726 71.3114 151.937 70.9649C152.147 70.6184 152.374 70.3428 152.615 70.138C152.961 69.8348 153.365 69.6167 153.825 69.4835C154.297 69.3512 154.819 69.3088 155.393 69.3562C155.967 69.4037 156.47 69.5309 156.903 69.7379C157.346 69.9458 157.713 70.2277 158.005 70.5836C158.22 70.8261 158.398 71.1352 158.538 71.5107C158.689 71.887 158.787 72.3875 158.832 73.0119C158.887 73.6373 158.873 74.4496 158.791 75.4489C158.708 76.4481 158.588 77.2516 158.431 77.8594C158.284 78.4681 158.106 78.9456 157.895 79.2921C157.696 79.6289 157.47 79.9045 157.217 80.119C156.87 80.4222 156.462 80.64 155.991 80.7723C155.53 80.9054 155.013 80.9483 154.439 80.9008ZM154.542 79.6571C155.328 79.7221 155.941 79.5587 156.38 79.1669C156.83 78.776 157.106 78.2208 157.208 77.5015C157.279 77.0364 157.333 76.6448 157.37 76.3268C157.418 75.999 157.456 75.6703 157.483 75.3408C157.511 75.0006 157.528 74.6702 157.533 74.3495C157.55 74.0191 157.561 73.624 157.567 73.1643C157.584 72.4379 157.403 71.8449 157.024 71.3854C156.655 70.9268 156.077 70.665 155.29 70.6C154.504 70.535 153.886 70.6979 153.436 71.0888C152.997 71.4807 152.726 72.0363 152.624 72.7556C152.554 73.2101 152.495 73.6012 152.446 73.929C152.409 74.247 152.377 74.5761 152.349 74.9163C152.322 75.2458 152.3 75.5758 152.283 75.9062C152.278 76.2269 152.272 76.6224 152.265 77.0928C152.248 77.8192 152.424 78.4117 152.792 78.8703C153.172 79.3298 153.755 79.5921 154.542 79.6571Z" fill="white"/>
<!-- <path d="M83.7727 0.365261C83.4222 -0.0615018 82.792 -0.123281 82.3653 0.227274L75.4107 5.93993C74.984 6.29049 74.9222 6.92063 75.2727 7.3474C75.6233 7.77416 76.2534 7.83594 76.6802 7.48538L82.862 2.40747L87.9399 8.58928C88.2905 9.01604 88.9206 9.07782 89.3474 8.72726C89.7742 8.37671 89.8359 7.74656 89.4854 7.3198L83.7727 0.365261ZM78.9952 52.0976L83.9952 1.09757L82.0048 0.90243L77.0048 51.9024L78.9952 52.0976Z" fill="white"/> -->
</svg>
