<svg width="233" height="160" viewBox="0 0 233 160" fill="none" xmlns="http://www.w3.org/2000/svg">
<path d="M16.2069 125.4V122.44H17.3269V125.4H16.2069ZM16.2069 112.264V109.4H17.3269V112.264H16.2069ZM16.3829 123.16C15.7642 123.16 15.1669 123.064 14.5909 122.872C14.0149 122.669 13.5295 122.403 13.1349 122.072L13.6149 120.952C13.9669 121.261 14.3829 121.501 14.8629 121.672C15.3429 121.843 15.8282 121.928 16.3189 121.928C17.0762 121.928 17.6469 121.736 18.0309 121.352C18.4149 120.968 18.6069 120.472 18.6069 119.864C18.6069 119.352 18.4682 118.904 18.1909 118.52C17.9135 118.136 17.4389 117.907 16.7669 117.832L15.9989 117.752C15.4015 117.688 14.8895 117.533 14.4629 117.288C14.0362 117.043 13.7109 116.712 13.4869 116.296C13.2629 115.869 13.1509 115.368 13.1509 114.792C13.1509 114.184 13.3002 113.645 13.5989 113.176C13.8975 112.696 14.3189 112.323 14.8629 112.056C15.4175 111.779 16.0735 111.64 16.8309 111.64C17.3002 111.64 17.7802 111.704 18.2709 111.832C18.7615 111.96 19.2202 112.163 19.6469 112.44L19.2469 113.56C18.8629 113.293 18.4629 113.107 18.0469 113C17.6309 112.893 17.2309 112.84 16.8469 112.84C16.0789 112.84 15.4869 113.016 15.0709 113.368C14.6655 113.709 14.4629 114.157 14.4629 114.712C14.4629 115.277 14.6175 115.704 14.9269 115.992C15.2362 116.28 15.6469 116.451 16.1589 116.504L16.9269 116.584C17.8975 116.691 18.6335 117.032 19.1349 117.608C19.6469 118.184 19.9029 118.909 19.9029 119.784C19.9029 120.424 19.7589 121 19.4709 121.512C19.1935 122.024 18.7935 122.429 18.2709 122.728C17.7482 123.016 17.1189 123.16 16.3829 123.16ZM23.3472 123V111.8H26.2592C27.5499 111.8 28.5312 112.131 29.2032 112.792C29.8752 113.453 30.2592 114.349 30.3552 115.48C30.3766 115.768 30.3926 116.083 30.4032 116.424C30.4246 116.765 30.4352 117.091 30.4352 117.4C30.4352 117.709 30.4246 118.035 30.4032 118.376C30.3926 118.717 30.3766 119.032 30.3552 119.32C30.2699 120.451 29.8859 121.347 29.2032 122.008C28.5312 122.669 27.5499 123 26.2592 123H23.3472ZM24.6272 121.848H26.2592C27.1979 121.848 27.8806 121.597 28.3072 121.096C28.7446 120.595 28.9952 119.955 29.0592 119.176C29.0912 118.813 29.1072 118.504 29.1072 118.248C29.1179 117.992 29.1232 117.709 29.1232 117.4C29.1232 117.091 29.1179 116.808 29.1072 116.552C29.1072 116.296 29.0912 115.987 29.0592 115.624C28.9952 114.845 28.7446 114.205 28.3072 113.704C27.8806 113.203 27.1979 112.957 26.2592 112.968H24.6272V121.848ZM37.5159 123.192C36.9399 123.192 36.4225 123.107 35.9639 122.936C35.5159 122.765 35.1319 122.515 34.8119 122.184C34.5879 121.949 34.3852 121.656 34.2039 121.304C34.0225 120.941 33.8785 120.451 33.7719 119.832C33.6759 119.213 33.6279 118.403 33.6279 117.4C33.6279 116.397 33.6759 115.587 33.7719 114.968C33.8785 114.349 34.0225 113.859 34.2039 113.496C34.3852 113.133 34.5879 112.84 34.8119 112.616C35.1319 112.285 35.5159 112.035 35.9639 111.864C36.4225 111.693 36.9399 111.608 37.5159 111.608C38.0919 111.608 38.6039 111.693 39.0519 111.864C39.5105 112.035 39.8999 112.285 40.2199 112.616C40.4545 112.84 40.6572 113.133 40.8279 113.496C41.0092 113.859 41.1479 114.349 41.2439 114.968C41.3505 115.587 41.4039 116.397 41.4039 117.4C41.4039 118.403 41.3505 119.213 41.2439 119.832C41.1479 120.451 41.0092 120.941 40.8279 121.304C40.6572 121.656 40.4545 121.949 40.2199 122.184C39.8999 122.515 39.5105 122.765 39.0519 122.936C38.6039 123.107 38.0919 123.192 37.5159 123.192ZM37.5159 121.944C38.3052 121.944 38.9025 121.731 39.3079 121.304C39.7239 120.877 39.9532 120.301 39.9959 119.576C40.0279 119.107 40.0492 118.712 40.0599 118.392C40.0812 118.061 40.0919 117.731 40.0919 117.4C40.0919 117.059 40.0812 116.728 40.0599 116.408C40.0492 116.077 40.0279 115.683 39.9959 115.224C39.9532 114.499 39.7239 113.923 39.3079 113.496C38.9025 113.069 38.3052 112.856 37.5159 112.856C36.7265 112.856 36.1239 113.069 35.7079 113.496C35.3025 113.923 35.0785 114.499 35.0359 115.224C35.0039 115.683 34.9772 116.077 34.9559 116.408C34.9452 116.728 34.9399 117.059 34.9399 117.4C34.9399 117.731 34.9452 118.061 34.9559 118.392C34.9772 118.712 35.0039 119.107 35.0359 119.576C35.0785 120.301 35.3025 120.877 35.7079 121.304C36.1239 121.731 36.7265 121.944 37.5159 121.944ZM44.931 123V111.8H46.019L50.707 120.552C50.7496 120.627 50.7976 120.653 50.851 120.632C50.9043 120.6 50.9256 120.547 50.915 120.472L50.739 119.4V111.8H52.019V123H50.739L46.275 114.728C46.2323 114.632 46.179 114.595 46.115 114.616C46.0616 114.637 46.0403 114.691 46.051 114.776L46.211 115.816V123H44.931ZM60.656 123V121.784H62.576V113.016H60.656V111.8H65.824V113.016H63.904V121.784H65.824V123H60.656ZM71.6616 123.16C71.0429 123.16 70.4456 123.064 69.8696 122.872C69.2936 122.669 68.8083 122.403 68.4136 122.072L68.8936 120.952C69.2456 121.261 69.6616 121.501 70.1416 121.672C70.6216 121.843 71.1069 121.928 71.5976 121.928C72.3549 121.928 72.9256 121.736 73.3096 121.352C73.6936 120.968 73.8856 120.472 73.8856 119.864C73.8856 119.352 73.7469 118.904 73.4696 118.52C73.1923 118.136 72.7176 117.907 72.0456 117.832L71.2776 117.752C70.6803 117.688 70.1683 117.533 69.7416 117.288C69.3149 117.043 68.9896 116.712 68.7656 116.296C68.5416 115.869 68.4296 115.368 68.4296 114.792C68.4296 114.184 68.5789 113.645 68.8776 113.176C69.1763 112.696 69.5976 112.323 70.1416 112.056C70.6963 111.779 71.3523 111.64 72.1096 111.64C72.5789 111.64 73.0589 111.704 73.5496 111.832C74.0403 111.96 74.4989 112.163 74.9256 112.44L74.5256 113.56C74.1416 113.293 73.7416 113.107 73.3256 113C72.9096 112.893 72.5096 112.84 72.1256 112.84C71.3576 112.84 70.7656 113.016 70.3496 113.368C69.9443 113.709 69.7416 114.157 69.7416 114.712C69.7416 115.277 69.8963 115.704 70.2056 115.992C70.5149 116.28 70.9256 116.451 71.4376 116.504L72.2056 116.584C73.1763 116.691 73.9123 117.032 74.4136 117.608C74.9256 118.184 75.1816 118.909 75.1816 119.784C75.1816 120.424 75.0376 121 74.7496 121.512C74.4723 122.024 74.0723 122.429 73.5496 122.728C73.0269 123.016 72.3976 123.16 71.6616 123.16ZM83.6247 123V111.8H84.7127L89.4007 120.552C89.4434 120.627 89.4914 120.653 89.5447 120.632C89.5981 120.6 89.6194 120.547 89.6087 120.472L89.4327 119.4V111.8H90.7127V123H89.4327L84.9687 114.728C84.9261 114.632 84.8727 114.595 84.8087 114.616C84.7554 114.637 84.7341 114.691 84.7447 114.776L84.9047 115.816V123H83.6247ZM98.1215 123.192C97.5455 123.192 97.0282 123.107 96.5695 122.936C96.1215 122.765 95.7375 122.515 95.4175 122.184C95.1935 121.949 94.9908 121.656 94.8095 121.304C94.6281 120.941 94.4842 120.451 94.3775 119.832C94.2815 119.213 94.2335 118.403 94.2335 117.4C94.2335 116.397 94.2815 115.587 94.3775 114.968C94.4842 114.349 94.6281 113.859 94.8095 113.496C94.9908 113.133 95.1935 112.84 95.4175 112.616C95.7375 112.285 96.1215 112.035 96.5695 111.864C97.0282 111.693 97.5455 111.608 98.1215 111.608C98.6975 111.608 99.2095 111.693 99.6575 111.864C100.116 112.035 100.505 112.285 100.825 112.616C101.06 112.84 101.263 113.133 101.433 113.496C101.615 113.859 101.753 114.349 101.849 114.968C101.956 115.587 102.009 116.397 102.009 117.4C102.009 118.403 101.956 119.213 101.849 119.832C101.753 120.451 101.615 120.941 101.433 121.304C101.263 121.656 101.06 121.949 100.825 122.184C100.505 122.515 100.116 122.765 99.6575 122.936C99.2095 123.107 98.6975 123.192 98.1215 123.192ZM98.1215 121.944C98.9108 121.944 99.5082 121.731 99.9135 121.304C100.329 120.877 100.559 120.301 100.601 119.576C100.633 119.107 100.655 118.712 100.665 118.392C100.687 118.061 100.697 117.731 100.697 117.4C100.697 117.059 100.687 116.728 100.665 116.408C100.655 116.077 100.633 115.683 100.601 115.224C100.559 114.499 100.329 113.923 99.9135 113.496C99.5082 113.069 98.9108 112.856 98.1215 112.856C97.3322 112.856 96.7295 113.069 96.3135 113.496C95.9082 113.923 95.6842 114.499 95.6415 115.224C95.6095 115.683 95.5828 116.077 95.5615 116.408C95.5508 116.728 95.5455 117.059 95.5455 117.4C95.5455 117.731 95.5508 118.061 95.5615 118.392C95.5828 118.712 95.6095 119.107 95.6415 119.576C95.6842 120.301 95.9082 120.877 96.3135 121.304C96.7295 121.731 97.3322 121.944 98.1215 121.944ZM106.844 123V113.048H104.092V111.8H110.94V113.048H108.172V123H106.844ZM120.541 123.192C120.146 123.192 119.704 123.112 119.213 122.952C118.733 122.781 118.322 122.531 117.981 122.2L118.381 121.064C118.541 121.277 118.744 121.448 118.989 121.576C119.245 121.704 119.512 121.8 119.789 121.864C120.077 121.917 120.328 121.944 120.541 121.944C121.053 121.944 121.458 121.821 121.757 121.576C122.066 121.331 122.221 120.984 122.221 120.536V113.048H119.661V111.8H123.533V120.536C123.533 121.368 123.261 122.019 122.717 122.488C122.184 122.957 121.458 123.192 120.541 123.192ZM130.961 123.16C130.268 123.16 129.655 123.021 129.121 122.744C128.599 122.456 128.188 122.056 127.889 121.544C127.601 121.032 127.457 120.445 127.457 119.784V111.8H128.801L128.785 119.784C128.785 120.424 128.983 120.947 129.377 121.352C129.783 121.747 130.311 121.944 130.961 121.944C131.612 121.944 132.135 121.747 132.529 121.352C132.935 120.947 133.137 120.424 133.137 119.784V111.8H134.481L134.465 119.784C134.465 120.445 134.316 121.032 134.017 121.544C133.729 122.056 133.319 122.456 132.785 122.744C132.263 123.021 131.655 123.16 130.961 123.16ZM140.887 123.16C140.269 123.16 139.671 123.064 139.095 122.872C138.519 122.669 138.034 122.403 137.639 122.072L138.119 120.952C138.471 121.261 138.887 121.501 139.367 121.672C139.847 121.843 140.333 121.928 140.823 121.928C141.581 121.928 142.151 121.736 142.535 121.352C142.919 120.968 143.111 120.472 143.111 119.864C143.111 119.352 142.973 118.904 142.695 118.52C142.418 118.136 141.943 117.907 141.271 117.832L140.503 117.752C139.906 117.688 139.394 117.533 138.967 117.288C138.541 117.043 138.215 116.712 137.991 116.296C137.767 115.869 137.655 115.368 137.655 114.792C137.655 114.184 137.805 113.645 138.103 113.176C138.402 112.696 138.823 112.323 139.367 112.056C139.922 111.779 140.578 111.64 141.335 111.64C141.805 111.64 142.285 111.704 142.775 111.832C143.266 111.96 143.725 112.163 144.151 112.44L143.751 113.56C143.367 113.293 142.967 113.107 142.551 113C142.135 112.893 141.735 112.84 141.351 112.84C140.583 112.84 139.991 113.016 139.575 113.368C139.17 113.709 138.967 114.157 138.967 114.712C138.967 115.277 139.122 115.704 139.431 115.992C139.741 116.28 140.151 116.451 140.663 116.504L141.431 116.584C142.402 116.691 143.138 117.032 143.639 117.608C144.151 118.184 144.407 118.909 144.407 119.784C144.407 120.424 144.263 121 143.975 121.512C143.698 122.024 143.298 122.429 142.775 122.728C142.253 123.016 141.623 123.16 140.887 123.16ZM149.366 123V113.048H146.614V111.8H153.462V113.048H150.694V123H149.366ZM160.823 123L163.975 111.8H165.895L169.079 123H167.719L165.191 113.816L165.063 112.968C165.052 112.904 165.015 112.872 164.951 112.872C164.898 112.872 164.866 112.904 164.855 112.968L164.711 113.816L162.183 123H160.823ZM162.551 120.008L162.903 118.824H166.999L167.351 120.008H162.551ZM162.151 112.968V111.8H164.407V112.968H162.151ZM180.65 123.192C179.903 123.192 179.258 123.059 178.714 122.792C178.17 122.525 177.738 122.125 177.418 121.592C177.108 121.048 176.922 120.376 176.858 119.576C176.836 119.267 176.815 118.909 176.794 118.504C176.772 118.099 176.762 117.731 176.762 117.4C176.762 117.059 176.772 116.691 176.794 116.296C176.815 115.891 176.836 115.533 176.858 115.224C176.922 114.413 177.108 113.741 177.418 113.208C177.738 112.675 178.17 112.275 178.714 112.008C179.258 111.741 179.903 111.608 180.65 111.608C181.108 111.608 181.556 111.693 181.994 111.864C182.431 112.024 182.836 112.264 183.21 112.584L182.81 113.704C182.49 113.427 182.148 113.219 181.786 113.08C181.423 112.931 181.044 112.856 180.65 112.856C179.882 112.856 179.284 113.069 178.858 113.496C178.442 113.923 178.207 114.552 178.154 115.384C178.132 115.768 178.111 116.115 178.09 116.424C178.079 116.733 178.074 117.059 178.074 117.4C178.074 117.731 178.079 118.056 178.09 118.376C178.111 118.685 178.132 119.032 178.154 119.416C178.207 120.248 178.442 120.877 178.858 121.304C179.284 121.731 179.882 121.944 180.65 121.944C181.044 121.944 181.423 121.875 181.786 121.736C182.148 121.587 182.49 121.373 182.81 121.096L183.21 122.216C182.836 122.536 182.431 122.781 181.994 122.952C181.556 123.112 181.108 123.192 180.65 123.192ZM189.66 123.192C189.084 123.192 188.567 123.107 188.108 122.936C187.66 122.765 187.276 122.515 186.956 122.184C186.732 121.949 186.53 121.656 186.348 121.304C186.167 120.941 186.023 120.451 185.916 119.832C185.82 119.213 185.772 118.403 185.772 117.4C185.772 116.397 185.82 115.587 185.916 114.968C186.023 114.349 186.167 113.859 186.348 113.496C186.53 113.133 186.732 112.84 186.956 112.616C187.276 112.285 187.66 112.035 188.108 111.864C188.567 111.693 189.084 111.608 189.66 111.608C190.236 111.608 190.748 111.693 191.196 111.864C191.655 112.035 192.044 112.285 192.364 112.616C192.599 112.84 192.802 113.133 192.972 113.496C193.154 113.859 193.292 114.349 193.388 114.968C193.495 115.587 193.548 116.397 193.548 117.4C193.548 118.403 193.495 119.213 193.388 119.832C193.292 120.451 193.154 120.941 192.972 121.304C192.802 121.656 192.599 121.949 192.364 122.184C192.044 122.515 191.655 122.765 191.196 122.936C190.748 123.107 190.236 123.192 189.66 123.192ZM189.66 121.944C190.45 121.944 191.047 121.731 191.452 121.304C191.868 120.877 192.098 120.301 192.14 119.576C192.172 119.107 192.194 118.712 192.204 118.392C192.226 118.061 192.236 117.731 192.236 117.4C192.236 117.059 192.226 116.728 192.204 116.408C192.194 116.077 192.172 115.683 192.14 115.224C192.098 114.499 191.868 113.923 191.452 113.496C191.047 113.069 190.45 112.856 189.66 112.856C188.871 112.856 188.268 113.069 187.852 113.496C187.447 113.923 187.223 114.499 187.18 115.224C187.148 115.683 187.122 116.077 187.1 116.408C187.09 116.728 187.084 117.059 187.084 117.4C187.084 117.731 187.09 118.061 187.1 118.392C187.122 118.712 187.148 119.107 187.18 119.576C187.223 120.301 187.447 120.877 187.852 121.304C188.268 121.731 188.871 121.944 189.66 121.944ZM196.279 123V121.784H198.199V113.016H196.279V111.8H201.447V113.016H199.527V121.784H201.447V123H196.279ZM204.805 123V111.8H205.893L210.581 120.552C210.623 120.627 210.671 120.653 210.725 120.632C210.778 120.6 210.799 120.547 210.789 120.472L210.613 119.4V111.8H211.893V123H210.613L206.149 114.728C206.106 114.632 206.053 114.595 205.989 114.616C205.935 114.637 205.914 114.691 205.925 114.776L206.085 115.816V123H204.805ZM214.453 126.056L214.597 125.352C215.227 125.235 215.717 124.968 216.069 124.552C216.421 124.147 216.613 123.629 216.645 123H215.733V121.4H217.413V122.776C217.413 123.384 217.291 123.917 217.045 124.376C216.811 124.835 216.469 125.208 216.021 125.496C215.584 125.784 215.061 125.971 214.453 126.056ZM46.721 146V144.784H48.641V136.016H46.721V134.8H51.889V136.016H49.969V144.784H51.889V146H46.721ZM57.0386 146V136.048H54.2866V134.8H61.1346V136.048H58.3666V146H57.0386ZM63.8591 138.592L64.0031 137.744C64.4298 137.584 64.7658 137.323 65.0111 136.96C65.2564 136.587 65.3898 136.133 65.4111 135.6H64.4991V134H66.1791V135.056C66.1791 135.749 66.0831 136.331 65.8911 136.8C65.6991 137.269 65.4271 137.648 65.0751 137.936C64.7338 138.224 64.3284 138.443 63.8591 138.592ZM72.3416 146.16C71.7229 146.16 71.1256 146.064 70.5496 145.872C69.9736 145.669 69.4883 145.403 69.0936 145.072L69.5736 143.952C69.9256 144.261 70.3416 144.501 70.8216 144.672C71.3016 144.843 71.7869 144.928 72.2776 144.928C73.0349 144.928 73.6056 144.736 73.9896 144.352C74.3736 143.968 74.5656 143.472 74.5656 142.864C74.5656 142.352 74.4269 141.904 74.1496 141.52C73.8723 141.136 73.3976 140.907 72.7256 140.832L71.9576 140.752C71.3603 140.688 70.8483 140.533 70.4216 140.288C69.9949 140.043 69.6696 139.712 69.4456 139.296C69.2216 138.869 69.1096 138.368 69.1096 137.792C69.1096 137.184 69.2589 136.645 69.5576 136.176C69.8563 135.696 70.2776 135.323 70.8216 135.056C71.3763 134.779 72.0323 134.64 72.7896 134.64C73.2589 134.64 73.7389 134.704 74.2296 134.832C74.7203 134.96 75.1789 135.163 75.6056 135.44L75.2056 136.56C74.8216 136.293 74.4216 136.107 74.0056 136C73.5896 135.893 73.1896 135.84 72.8056 135.84C72.0376 135.84 71.4456 136.016 71.0296 136.368C70.6243 136.709 70.4216 137.157 70.4216 137.712C70.4216 138.277 70.5763 138.704 70.8856 138.992C71.1949 139.28 71.6056 139.451 72.1176 139.504L72.8856 139.584C73.8563 139.691 74.5923 140.032 75.0936 140.608C75.6056 141.184 75.8616 141.909 75.8616 142.784C75.8616 143.424 75.7176 144 75.4296 144.512C75.1523 145.024 74.7523 145.429 74.2296 145.728C73.7069 146.016 73.0776 146.16 72.3416 146.16ZM83.3447 146L86.4967 134.8H88.4167L91.6007 146H90.2407L87.7127 136.816L87.5847 135.968C87.5741 135.904 87.5367 135.872 87.4727 135.872C87.4194 135.872 87.3874 135.904 87.3767 135.968L87.2327 136.816L84.7047 146H83.3447ZM85.0727 143.008L85.4247 141.824H89.5207L89.8727 143.008H85.0727ZM84.6727 135.968V134.8H86.9287V135.968H84.6727ZM99.7635 146V134.8H100.883L103.539 139.824C103.593 139.92 103.651 139.968 103.715 139.968C103.79 139.968 103.849 139.92 103.891 139.824L106.547 134.8H107.667V146H106.387V138.704L106.547 137.696C106.558 137.621 106.537 137.573 106.483 137.552C106.441 137.531 106.393 137.563 106.339 137.648L104.115 141.76H103.315L101.091 137.648C101.049 137.563 101.001 137.531 100.947 137.552C100.894 137.573 100.873 137.621 100.883 137.696L101.043 138.704V146H99.7635ZM115.073 146.192C114.497 146.192 113.979 146.107 113.521 145.936C113.073 145.765 112.689 145.515 112.369 145.184C112.145 144.949 111.942 144.656 111.761 144.304C111.579 143.941 111.435 143.451 111.329 142.832C111.233 142.213 111.185 141.403 111.185 140.4C111.185 139.397 111.233 138.587 111.329 137.968C111.435 137.349 111.579 136.859 111.761 136.496C111.942 136.133 112.145 135.84 112.369 135.616C112.689 135.285 113.073 135.035 113.521 134.864C113.979 134.693 114.497 134.608 115.073 134.608C115.649 134.608 116.161 134.693 116.609 134.864C117.067 135.035 117.457 135.285 117.777 135.616C118.011 135.84 118.214 136.133 118.385 136.496C118.566 136.859 118.705 137.349 118.801 137.968C118.907 138.587 118.961 139.397 118.961 140.4C118.961 141.403 118.907 142.213 118.801 142.832C118.705 143.451 118.566 143.941 118.385 144.304C118.214 144.656 118.011 144.949 117.777 145.184C117.457 145.515 117.067 145.765 116.609 145.936C116.161 146.107 115.649 146.192 115.073 146.192ZM115.073 144.944C115.862 144.944 116.459 144.731 116.865 144.304C117.281 143.877 117.51 143.301 117.553 142.576C117.585 142.107 117.606 141.712 117.617 141.392C117.638 141.061 117.649 140.731 117.649 140.4C117.649 140.059 117.638 139.728 117.617 139.408C117.606 139.077 117.585 138.683 117.553 138.224C117.51 137.499 117.281 136.923 116.865 136.496C116.459 136.069 115.862 135.856 115.073 135.856C114.283 135.856 113.681 136.069 113.265 136.496C112.859 136.923 112.635 137.499 112.593 138.224C112.561 138.683 112.534 139.077 112.513 139.408C112.502 139.728 112.497 140.059 112.497 140.4C112.497 140.731 112.502 141.061 112.513 141.392C112.534 141.712 112.561 142.107 112.593 142.576C112.635 143.301 112.859 143.877 113.265 144.304C113.681 144.731 114.283 144.944 115.073 144.944ZM123.999 146L121.055 134.8H122.415L124.783 143.984L124.927 144.832C124.938 144.896 124.97 144.928 125.023 144.928C125.087 144.928 125.125 144.896 125.135 144.832L125.263 143.984L127.631 134.8H128.991L126.031 146H123.999ZM131.873 146V134.8H138.321V136.048H133.121V139.776H138.049V141.024H133.121V144.752H138.321V146H131.873ZM141.837 146V134.8H142.957L145.613 139.824C145.667 139.92 145.725 139.968 145.789 139.968C145.864 139.968 145.923 139.92 145.965 139.824L148.621 134.8H149.741V146H148.461V138.704L148.621 137.696C148.632 137.621 148.611 137.573 148.557 137.552C148.515 137.531 148.467 137.563 148.413 137.648L146.189 141.76H145.389L143.165 137.648C143.123 137.563 143.075 137.531 143.021 137.552C142.968 137.573 142.947 137.621 142.957 137.696L143.117 138.704V146H141.837ZM153.738 146V134.8H160.186V136.048H154.986V139.776H159.914V141.024H154.986V144.752H160.186V146H153.738ZM163.702 146V134.8H164.79L169.478 143.552C169.521 143.627 169.569 143.653 169.622 143.632C169.676 143.6 169.697 143.547 169.686 143.472L169.51 142.4V134.8H170.79V146H169.51L165.046 137.728C165.004 137.632 164.95 137.595 164.886 137.616C164.833 137.637 164.812 137.691 164.822 137.776L164.982 138.816V146H163.702ZM176.583 146V136.048H173.831V134.8H180.679V136.048H177.911V146H176.583ZM183.851 142.64L183.643 134.8H185.003L184.795 142.64H183.851ZM183.643 146V144.48H185.003V146H183.643Z" fill="white"/>
<!-- <path d="M87.517 0.144004C87.0442 -0.141521 86.4295 0.0102581 86.144 0.483012L81.4911 8.18695C81.2056 8.65971 81.3574 9.27441 81.8301 9.55994C82.3029 9.84546 82.9176 9.69368 83.2031 9.22093L87.339 2.37298L94.187 6.50887C94.6597 6.79439 95.2744 6.64262 95.5599 6.16986C95.8455 5.69711 95.6937 5.08241 95.2209 4.79688L87.517 0.144004ZM107.971 81.7603L87.9708 0.760284L86.0292 1.23971L106.029 82.2397L107.971 81.7603Z" fill="white"/> -->
</svg>
