<svg width="170" height="140" viewBox="0 0 170 140" fill="none" xmlns="http://www.w3.org/2000/svg">
<path d="M10.5388 135.063L9.48977 132.296L10.5371 131.899L11.5861 134.667L10.5388 135.063ZM5.88342 122.78L4.86842 120.102L5.91573 119.705L6.93072 122.383L5.88342 122.78ZM9.90952 132.906C9.331 133.126 8.73842 133.248 8.13176 133.272C7.52132 133.287 6.97298 133.209 6.48674 133.04L6.53866 131.823C6.97744 131.987 7.4515 132.064 7.96083 132.054C8.47016 132.043 8.95423 131.951 9.41305 131.777C10.1212 131.509 10.5868 131.127 10.8098 130.632C11.0328 130.137 11.0365 129.605 10.8211 129.036C10.6396 128.557 10.3512 128.188 9.95576 127.927C9.56034 127.666 9.0352 127.62 8.38036 127.788L7.63385 127.986C7.05261 128.137 6.51903 128.174 6.03311 128.096C5.54719 128.018 5.12578 127.824 4.76889 127.514C4.40822 127.195 4.12582 126.766 3.92169 126.227C3.70621 125.658 3.65495 125.102 3.7679 124.557C3.87707 124.002 4.13875 123.504 4.55293 123.062C4.97331 122.606 5.53759 122.244 6.24577 121.975C6.68464 121.809 7.15617 121.699 7.66035 121.645C8.16453 121.59 8.66526 121.617 9.16252 121.725L9.1854 122.915C8.73182 122.801 8.29163 122.768 7.86483 122.816C7.43803 122.864 7.04509 122.956 6.68601 123.092C5.96786 123.364 5.47666 123.738 5.2124 124.215C4.95435 124.678 4.9236 125.169 5.12018 125.687C5.32053 126.216 5.61637 126.56 6.00769 126.72C6.39901 126.879 6.84351 126.893 7.34118 126.762L8.08768 126.564C9.03315 126.32 9.84235 126.379 10.5153 126.739C11.1982 127.097 11.6946 127.684 12.0046 128.502C12.2314 129.101 12.3009 129.69 12.213 130.271C12.1352 130.848 11.9048 131.369 11.5219 131.833C11.1352 132.288 10.5977 132.646 9.90952 132.906ZM16.3652 130.289L12.3959 119.816L15.1189 118.784C16.3258 118.326 17.3606 118.288 18.2234 118.668C19.0861 119.048 19.7628 119.75 20.2532 120.773C20.3752 121.035 20.5017 121.323 20.6327 121.639C20.7736 121.95 20.8989 122.251 21.0085 122.54C21.1181 122.829 21.2234 123.137 21.3245 123.464C21.4354 123.787 21.532 124.087 21.6141 124.364C21.935 125.451 21.8935 126.425 21.4895 127.286C21.0955 128.142 20.2951 128.799 19.0882 129.257L16.3652 130.289ZM17.1538 128.758L18.6799 128.179C19.5576 127.847 20.1072 127.37 20.3285 126.75C20.5597 126.127 20.5673 125.439 20.3512 124.689C20.2526 124.338 20.1579 124.043 20.0672 123.804C19.9865 123.561 19.8913 123.294 19.7816 123.005C19.672 122.716 19.5668 122.453 19.4661 122.218C19.3754 121.978 19.2508 121.695 19.0924 121.367C18.7566 120.662 18.2954 120.152 17.7087 119.838C17.1321 119.521 16.4068 119.533 15.5328 119.876L14.0068 120.454L17.1538 128.758ZM29.6822 125.447C29.1436 125.651 28.6296 125.755 28.1402 125.758C27.6608 125.757 27.2129 125.658 26.7965 125.463C26.5039 125.323 26.2104 125.12 25.9161 124.855C25.618 124.58 25.3094 124.173 24.9904 123.632C24.6814 123.087 24.3492 122.346 23.9939 121.409C23.6385 120.471 23.3961 119.696 23.2666 119.084C23.1471 118.467 23.1079 117.957 23.1489 117.554C23.19 117.151 23.2755 116.804 23.4056 116.516C23.5876 116.093 23.8579 115.722 24.2163 115.404C24.5847 115.082 25.0382 114.819 25.5769 114.615C26.1155 114.411 26.6245 114.309 27.1039 114.31C27.5933 114.307 28.0462 114.403 28.4626 114.599C28.7614 114.725 29.0549 114.928 29.343 115.206C29.6411 115.481 29.9446 115.891 30.2537 116.435C30.5727 116.976 30.9098 117.715 31.2652 118.653C31.6205 119.59 31.858 120.367 31.9775 120.984C32.107 121.596 32.1512 122.104 32.1101 122.508C32.0753 122.897 31.9897 123.243 31.8535 123.546C31.6714 123.969 31.3962 124.341 31.0278 124.663C30.6694 124.981 30.2208 125.243 29.6822 125.447ZM29.2399 124.28C29.978 124 30.461 123.589 30.6888 123.046C30.9266 122.5 30.9369 121.88 30.7197 121.187C30.5833 120.736 30.4634 120.36 30.36 120.057C30.2627 119.74 30.1555 119.427 30.0383 119.118C29.9174 118.799 29.7902 118.493 29.6569 118.202C29.5297 117.896 29.3699 117.535 29.1774 117.117C28.8804 116.454 28.4619 115.997 27.9217 115.745C27.3914 115.49 26.7573 115.502 26.0192 115.782C25.281 116.061 24.7931 116.475 24.5553 117.021C24.3275 117.564 24.3222 118.182 24.5393 118.875C24.672 119.315 24.7869 119.694 24.8841 120.01C24.9876 120.313 25.0998 120.625 25.2207 120.944C25.3379 121.253 25.4601 121.56 25.5873 121.866C25.7206 122.157 25.8854 122.517 26.0817 122.944C26.3786 123.608 26.7922 124.067 27.3225 124.322C27.8627 124.574 28.5018 124.56 29.2399 124.28ZM36.548 122.639L32.5787 112.166L33.5961 111.781L41.0816 118.303C41.1479 118.358 41.2022 118.366 41.2446 118.327C41.2831 118.278 41.2841 118.221 41.2477 118.155L40.7032 117.215L38.0098 110.108L39.2067 109.654L43.176 120.127L41.979 120.581L34.8732 114.428C34.7993 114.353 34.7362 114.337 34.6839 114.38C34.6416 114.419 34.6405 114.476 34.6807 114.552L35.1989 115.468L37.7449 122.186L36.548 122.639ZM51.8508 116.84L47.8816 106.367L53.7465 104.144L54.1888 105.311L49.5657 107.063L50.8869 110.549L55.121 108.944L55.5633 110.111L51.3292 111.716L53.0926 116.369L51.8508 116.84ZM59.8173 113.82L58.7954 102.23L60.5908 101.55L67.5374 110.895L66.2657 111.377L60.647 103.685L60.2267 102.937C60.1941 102.881 60.1478 102.864 60.088 102.887C60.0381 102.906 60.0195 102.947 60.0322 103.011L60.1981 103.855L61.089 113.338L59.8173 113.82ZM60.3727 110.41L60.2823 109.178L64.1124 107.727L64.8612 108.709L60.3727 110.41ZM57.5037 103.969L57.0898 102.877L59.1994 102.077L59.6133 103.169L57.5037 103.969ZM70.2365 109.872L66.2673 99.3985L67.3146 99.0016L71.5787 102.758C71.6626 102.829 71.7345 102.853 71.7943 102.83C71.8641 102.804 71.902 102.738 71.9078 102.633L72.611 96.9943L73.6583 96.5973L77.6275 107.07L76.4306 107.524L73.8449 100.702L73.6373 99.7023C73.6208 99.6287 73.5839 99.5914 73.5264 99.5903C73.479 99.5855 73.4454 99.6324 73.4258 99.7311L72.8034 104.364L72.0553 104.648L68.5184 101.591C68.4483 101.526 68.392 101.513 68.3497 101.552C68.3074 101.591 68.3045 101.644 68.3409 101.71L68.8478 102.595L71.4335 109.418L70.2365 109.872ZM80.7669 105.881L80.3359 104.744L82.1313 104.063L79.0239 95.8642L77.2286 96.5446L76.7976 95.4075L81.6302 93.576L82.0611 94.7131L80.2658 95.3935L83.3731 103.592L85.1685 102.912L85.5994 104.049L80.7669 105.881ZM88.7391 102.859L84.7699 92.3861L86.0117 91.9154L89.5387 101.221L93.2641 99.8096L93.7064 100.977L88.7391 102.859ZM96.8678 99.7784L94.9966 94.8411L89.8913 90.4451L91.2977 89.9121L94.6437 93.0071L95.0707 93.5468C95.1096 93.5891 95.1539 93.6008 95.2038 93.5819C95.2636 93.5592 95.2891 93.5211 95.2802 93.4674L95.2422 92.7803L95.6963 88.245L97.1027 87.7119L96.1935 94.3875L98.0647 99.3248L96.8678 99.7784ZM110.782 94.6762C110.203 94.8954 109.611 95.0173 109.004 95.0419C108.393 95.0566 107.845 94.9792 107.359 94.8099L107.411 93.5925C107.85 93.757 108.324 93.834 108.833 93.8234C109.342 93.8129 109.826 93.7207 110.285 93.5468C110.993 93.2784 111.459 92.8966 111.682 92.4015C111.905 91.9063 111.909 91.3745 111.693 90.8059C111.512 90.3271 111.223 89.9574 110.828 89.6966C110.433 89.4358 109.907 89.3896 109.253 89.5579L108.506 89.7553C107.925 89.9071 107.391 89.9439 106.905 89.8657C106.419 89.7875 105.998 89.5936 105.641 89.284C105.28 88.9644 104.998 88.5353 104.794 87.9967C104.578 87.4282 104.527 86.8715 104.64 86.3268C104.749 85.7721 105.011 85.2737 105.425 84.8316C105.845 84.3757 106.41 84.0135 107.118 83.7451C107.557 83.5788 108.028 83.4685 108.533 83.4143C109.037 83.3601 109.537 83.3871 110.035 83.4952L110.058 84.6843C109.604 84.571 109.164 84.5382 108.737 84.5859C108.31 84.6336 107.917 84.7255 107.558 84.8616C106.84 85.1337 106.349 85.5081 106.085 85.9847C105.827 86.4475 105.796 86.9383 105.992 87.4569C106.193 87.9856 106.489 88.3297 106.88 88.4894C107.271 88.6491 107.716 88.6631 108.213 88.5316L108.96 88.3342C109.905 88.0899 110.715 88.1483 111.387 88.5092C112.07 88.8664 112.567 89.4539 112.877 90.2718C113.104 90.8703 113.173 91.4599 113.085 92.0408C113.007 92.6178 112.777 93.1386 112.394 93.6031C112.007 94.0576 111.47 94.4153 110.782 94.6762ZM118.654 91.5217L115.127 82.2156L112.553 83.1909L112.111 82.0239L118.514 79.597L118.957 80.764L116.368 81.745L119.895 91.051L118.654 91.5217ZM125.331 88.9911L121.361 78.518L124.773 77.2252C125.73 76.8623 126.576 76.8381 127.312 77.1526C128.057 77.4634 128.609 78.0925 128.968 79.0401C129.233 79.7383 129.279 80.3879 129.108 80.989C128.936 81.5901 128.579 82.0908 128.034 82.4909C127.906 82.5738 127.922 82.6761 128.082 82.7979L128.788 83.3516L131.599 86.6152L130.268 87.1199L126.814 83.1076L124.764 83.8844L126.527 88.5374L125.331 88.9911ZM124.35 82.7922L126.564 81.953C127.133 81.7375 127.525 81.4178 127.741 80.9938C127.953 80.5599 127.953 80.0636 127.741 79.5051C127.507 78.8866 127.163 78.4752 126.709 78.2708C126.251 78.0565 125.738 78.057 125.169 78.2725L122.955 79.1117L124.35 82.7922ZM138.063 84.3708C137.525 84.5749 137.011 84.6785 136.521 84.6814C136.042 84.6806 135.594 84.5823 135.177 84.3865C134.885 84.2464 134.591 84.044 134.297 83.7791C133.999 83.5042 133.69 83.0964 133.371 82.5557C133.062 82.0112 132.73 81.2702 132.375 80.3326C132.02 79.395 131.777 78.62 131.648 78.0074C131.528 77.3911 131.489 76.8813 131.53 76.4779C131.571 76.0745 131.656 75.7284 131.787 75.4395C131.969 75.0169 132.239 74.6464 132.597 74.328C132.966 74.0059 133.419 73.7428 133.958 73.5386C134.496 73.3345 135.005 73.2328 135.485 73.2337C135.974 73.2307 136.427 73.3271 136.844 73.5229C137.142 73.6492 137.436 73.8517 137.724 74.1303C138.022 74.4052 138.326 74.8149 138.635 75.3594C138.954 75.9001 139.291 76.6392 139.646 77.5768C140.002 78.5144 140.239 79.2913 140.358 79.9077C140.488 80.5202 140.532 81.0282 140.491 81.4315C140.456 81.8212 140.371 82.1673 140.234 82.4699C140.052 82.8925 139.777 83.2649 139.409 83.587C139.05 83.9054 138.602 84.1666 138.063 84.3708ZM137.621 83.2038C138.359 82.924 138.842 82.5129 139.07 81.9702C139.308 81.4238 139.318 80.8039 139.101 80.1106C138.964 79.6604 138.844 79.2837 138.741 78.9807C138.644 78.664 138.537 78.351 138.419 78.0418C138.298 77.7226 138.171 77.4172 138.038 77.1255C137.911 76.8201 137.751 76.4586 137.558 76.041C137.261 75.3779 136.843 74.9206 136.303 74.669C135.772 74.4137 135.138 74.4259 134.4 74.7056C133.662 74.9854 133.174 75.3984 132.936 75.9448C132.708 76.4875 132.703 77.1055 132.92 77.7988C133.053 78.2391 133.168 78.6176 133.265 78.9344C133.369 79.2374 133.481 79.5485 133.602 79.8676C133.719 80.1768 133.841 80.4842 133.968 80.7896C134.102 81.0812 134.266 81.4408 134.463 81.8684C134.76 82.5315 135.173 82.9907 135.703 83.2461C136.244 83.4976 136.883 83.4835 137.621 83.2038ZM144.929 81.5633L140.96 71.0903L141.977 70.7047L149.463 77.2272C149.529 77.2819 149.583 77.2898 149.626 77.251C149.664 77.2022 149.665 77.1447 149.629 77.0787L149.084 76.1386L146.391 69.0319L147.588 68.5783L151.557 79.0514L150.36 79.505L143.254 73.3519C143.18 73.2773 143.117 73.2613 143.065 73.3039C143.023 73.3427 143.021 73.4002 143.062 73.4762L143.58 74.392L146.126 81.1097L144.929 81.5633ZM158.732 76.5372C157.625 76.9568 156.643 76.9983 155.785 76.6618C154.924 76.3152 154.237 75.6172 153.725 74.5678C153.596 74.2861 153.449 73.9595 153.286 73.5881C153.122 73.2166 152.982 72.8763 152.865 72.5671C152.744 72.2479 152.618 71.9019 152.488 71.5291C152.365 71.1425 152.258 70.8008 152.168 70.504C151.839 69.3054 151.9 68.307 152.351 67.5089C152.801 66.7108 153.58 66.102 154.687 65.6824C155.744 65.2817 156.732 65.2551 157.651 65.6027L157.665 66.8124C157.216 66.6517 156.799 66.5757 156.415 66.5846C156.027 66.5834 155.598 66.6717 155.129 66.8494C154.351 67.1442 153.811 67.5712 153.51 68.1303C153.215 68.6757 153.195 69.3618 153.452 70.1886C153.568 70.5552 153.671 70.887 153.76 71.1838C153.86 71.4768 153.97 71.7829 154.091 72.1021C154.209 72.4113 154.329 72.7136 154.452 73.0091C154.582 73.2908 154.725 73.6074 154.881 73.9589C155.206 74.6681 155.66 75.1578 156.242 75.4279C156.829 75.6843 157.512 75.6651 158.29 75.3702C158.569 75.2644 158.841 75.1386 159.105 74.9928C159.376 74.8333 159.559 74.6841 159.654 74.5452L158.367 71.1489L157.155 71.6082L156.713 70.4412L160.274 69.0917L160.716 70.2587L159.609 70.6783L161.134 74.7029C160.863 75.1021 160.545 75.451 160.179 75.7494C159.813 76.0478 159.331 76.3104 158.732 76.5372ZM164.245 70.6493L161.272 63.3919L162.544 62.9099L165.128 70.3147L164.245 70.6493ZM165.242 73.8649L164.703 72.4436L165.975 71.9616L166.513 73.3829L165.242 73.8649Z" fill="white"/>
<!-- <path d="M39.345 0.0613833C38.8266 -0.129135 38.2519 0.136653 38.0614 0.655038L34.9567 9.10259C34.7662 9.62097 35.032 10.1956 35.5504 10.3862C36.0688 10.5767 36.6434 10.3109 36.834 9.79251L39.5937 2.28358L47.1026 5.04327C47.621 5.23379 48.1957 4.968 48.3862 4.44962C48.5767 3.93123 48.3109 3.35656 47.7925 3.16604L39.345 0.0613833ZM76.9076 80.5802L39.9076 0.580223L38.0924 1.41978L75.0924 81.4198L76.9076 80.5802Z" fill="white"/> -->
</svg>
