<svg width="178" height="108" viewBox="0 0 178 108" fill="none" xmlns="http://www.w3.org/2000/svg">
<path d="M2.99018 80.2018L4.9883 65.6382L9.50301 66.2576C10.7652 66.4308 11.6954 66.9117 12.2938 67.7003C12.9079 68.477 13.1284 69.4965 12.9552 70.7586C12.8506 71.5215 12.5799 72.1556 12.1431 72.6609C11.7203 73.1681 11.1847 73.5186 10.5363 73.7122C11.1956 74.0571 11.6844 74.5622 12.0029 75.2277C12.3353 75.895 12.4454 76.6379 12.3331 77.4562C12.1599 78.7184 11.6513 79.6449 10.8071 80.2356C9.9649 80.8125 8.86415 81.0077 7.50489 80.8212L2.99018 80.2018ZM4.81279 78.9681L7.72551 79.3677C8.57158 79.4838 9.25392 79.3513 9.77253 78.9702C10.2911 78.5892 10.6037 78.0103 10.7103 77.2336C10.8226 76.4152 10.6812 75.7458 10.2863 75.2253C9.89332 74.6909 9.27378 74.3657 8.4277 74.2496L5.51499 73.85L4.81279 78.9681ZM5.7148 72.3936L8.62751 72.7933C9.3765 72.896 9.9835 72.7461 10.4485 72.3436C10.9274 71.943 11.2221 71.3404 11.3324 70.536C11.439 69.7593 11.3147 69.1204 10.9595 68.6195C10.6181 68.1205 10.073 67.8196 9.324 67.7168L6.41129 67.3172L5.7148 72.3936ZM16.1697 82.01L18.1678 67.4464L26.5523 68.5968L26.3296 70.2196L19.568 69.2919L18.9029 74.1395L25.3109 75.0186L25.0882 76.6414L18.6803 75.7623L18.0152 80.6098L24.7768 81.5375L24.5542 83.1603L16.1697 82.01ZM32.322 84.438C31.5176 84.3277 30.758 84.0963 30.0432 83.7439C29.3304 83.3776 28.7469 82.9442 28.2927 82.4438L29.1167 81.0731C29.5192 81.5382 30.0173 81.9244 30.611 82.232C31.2047 82.5396 31.8206 82.7371 32.4586 82.8246C33.4434 82.9598 34.2197 82.8119 34.7875 82.3811C35.3553 81.9503 35.6935 81.3396 35.8019 80.549C35.8933 79.8832 35.7929 79.2759 35.5008 78.7271C35.2087 78.1783 34.6324 77.7954 33.7719 77.5785L32.7875 77.3374C32.0222 77.1476 31.384 76.8552 30.873 76.46C30.362 76.0649 29.9979 75.5769 29.7809 74.996C29.5657 74.4012 29.5095 73.7294 29.6123 72.9804C29.7207 72.1898 30.011 71.516 30.4831 70.959C30.9571 70.3881 31.5716 69.9778 32.3265 69.7281C33.0972 69.4665 33.975 69.4032 34.9598 69.5383C35.5701 69.622 36.1828 69.7909 36.798 70.0449C37.4132 70.2988 37.9734 70.6442 38.4787 71.0809L37.7588 72.4659C37.3071 72.0507 36.8202 71.7366 36.2983 71.5237C35.7764 71.3108 35.2658 71.17 34.7665 71.1015C33.7678 70.9645 32.9667 71.0878 32.3629 71.4713C31.775 71.8428 31.4315 72.3892 31.3326 73.1104C31.2317 73.8455 31.3567 74.4279 31.7076 74.8576C32.0584 75.2873 32.562 75.5825 33.2182 75.7432L34.2026 75.9842C35.4457 76.2961 36.3419 76.8712 36.891 77.7096C37.454 78.55 37.6575 79.5388 37.5014 80.6762C37.3873 81.5084 37.0972 82.2317 36.6314 82.846C36.1794 83.4623 35.587 83.918 34.8541 84.2131C34.1231 84.4944 33.2791 84.5694 32.322 84.438ZM43.3758 85.7427L45.1513 72.8019L41.5728 72.3109L41.7954 70.6881L50.7 71.9098L50.4774 73.5326L46.8781 73.0388L45.1026 85.9796L43.3758 85.7427ZM63.9188 88.8155C62.9479 88.6823 62.1325 88.3938 61.4727 87.95C60.8129 87.5062 60.3225 86.909 60.0016 86.1584C59.6964 85.3958 59.5736 84.4887 59.6331 83.4371C59.6605 83.031 59.6965 82.5626 59.7411 82.0317C59.7857 81.5008 59.8374 81.0204 59.8964 80.5904C59.9573 80.1466 60.0369 79.67 60.135 79.1606C60.2351 78.6373 60.3265 78.1765 60.4095 77.7781C60.6373 76.7354 60.9999 75.8948 61.4973 75.2565C62.0086 74.6201 62.6417 74.1771 63.3966 73.9274C64.1516 73.6777 65.0145 73.6194 65.9854 73.7526C66.5818 73.8344 67.1491 74.0253 67.6873 74.3253C68.2275 74.6113 68.7117 74.9957 69.1401 75.4784L68.4201 76.8634C68.0535 76.4457 67.6468 76.1144 67.1999 75.8694C66.755 75.6105 66.2759 75.4458 65.7627 75.3754C64.7641 75.2384 63.9493 75.4092 63.3184 75.8879C62.7013 76.3685 62.2839 77.145 62.0661 78.2173C61.9699 78.7128 61.8803 79.1598 61.7974 79.5582C61.7283 79.9586 61.6633 80.3807 61.6025 80.8245C61.5435 81.2545 61.4924 81.6785 61.4491 82.0965C61.4217 82.5025 61.3876 82.9571 61.3468 83.4602C61.2677 84.5516 61.4606 85.4118 61.9254 86.0408C62.4041 86.6717 63.1428 87.0557 64.1414 87.1927C64.6546 87.2631 65.1594 87.2405 65.6557 87.1249C66.1539 86.9954 66.6358 86.7789 67.1014 86.4754L67.4217 88.0031C66.8792 88.3526 66.3083 88.5993 65.7092 88.7432C65.112 88.8732 64.5152 88.8973 63.9188 88.8155ZM75.6354 90.423C74.8865 90.3203 74.229 90.117 73.663 89.8133C73.1109 89.5114 72.6563 89.117 72.2992 88.6299C72.0498 88.2848 71.8386 87.8672 71.6656 87.3772C71.4945 86.8732 71.3948 86.2095 71.3665 85.386C71.352 84.5644 71.4342 83.5017 71.6131 82.198C71.792 80.8942 71.999 79.8486 72.2342 79.0613C72.4833 78.2758 72.7581 77.6635 73.0586 77.2243C73.3591 76.785 73.6749 76.4398 74.0062 76.1885C74.4813 75.8156 75.0253 75.5581 75.6383 75.4161C76.2652 75.2761 76.9531 75.2574 77.7021 75.3601C78.4511 75.4629 79.1016 75.6652 79.6537 75.9671C80.2197 76.2708 80.6812 76.6662 81.0383 77.1533C81.3035 77.4864 81.5147 77.904 81.6719 78.406C81.843 78.91 81.9358 79.5727 81.9502 80.3943C81.9786 81.2178 81.9033 82.2814 81.7244 83.5852C81.5455 84.889 81.3315 85.9336 81.0825 86.7191C80.8473 87.5064 80.5794 88.1197 80.2789 88.5589C79.9942 88.9862 79.6783 89.3314 79.3313 89.5947C78.8562 89.9676 78.3053 90.2241 77.6784 90.3642C77.0654 90.5062 76.3844 90.5258 75.6354 90.423ZM75.8581 88.8002C76.8845 88.9411 77.6993 88.7702 78.3024 88.2877C78.9195 87.8071 79.3205 87.0991 79.5053 86.1635C79.6307 85.559 79.7288 85.0496 79.7998 84.6354C79.8865 84.2092 79.9594 83.7811 80.0184 83.3512C80.0793 82.9073 80.1244 82.4754 80.1537 82.0555C80.1989 81.6237 80.2415 81.1067 80.2818 80.5045C80.3557 79.5538 80.1602 78.7639 79.6954 78.1348C79.2445 77.5077 78.5058 77.1238 77.4794 76.9829C76.453 76.8421 75.6313 77.012 75.0143 77.4926C74.4111 77.9751 74.0171 78.6841 73.8322 79.6197C73.7087 80.2104 73.6037 80.7188 73.5169 81.145C73.446 81.5592 73.38 81.9882 73.3191 82.432C73.2601 82.862 73.2081 83.2929 73.163 83.7248C73.1336 84.1447 73.0979 84.6627 73.0558 85.2786C72.9818 86.2294 73.1704 87.0184 73.6213 87.6455C74.0861 88.2745 74.8317 88.6594 75.8581 88.8002ZM85.3117 91.4963L87.3098 76.9327L88.7662 77.1325L91.3235 84.1391C91.3758 84.2735 91.4435 84.3464 91.5267 84.3578C91.6238 84.3711 91.7087 84.3192 91.7813 84.2019L96.1312 78.143L97.5876 78.3428L95.5894 92.9064L93.925 92.678L95.2267 83.1909L95.6145 81.9087C95.6417 81.8135 95.6226 81.7473 95.557 81.71C95.5053 81.6747 95.4372 81.7077 95.3526 81.8092L91.7271 86.7593L90.6869 86.6166L88.5286 80.8729C88.4883 80.7543 88.4316 80.7042 88.3585 80.7224C88.2853 80.7406 88.249 80.7992 88.2495 80.8982L88.2778 82.2375L86.9761 91.7246L85.3117 91.4963ZM100.787 93.6195L102.785 79.0559L104.242 79.2557L106.799 86.2624C106.851 86.3967 106.919 86.4696 107.002 86.481C107.099 86.4943 107.184 86.4424 107.257 86.3252L111.607 80.2662L113.063 80.466L111.065 95.0296L109.4 94.8012L110.702 85.3141L111.09 84.0319C111.117 83.9367 111.098 83.8705 111.032 83.8333C110.981 83.7979 110.913 83.831 110.828 83.9324L107.203 88.8825L106.162 88.7398L104.004 82.9961C103.964 82.8776 103.907 82.8274 103.834 82.8456C103.761 82.8638 103.724 82.9225 103.725 83.0215L103.753 84.3607L102.452 93.8478L100.787 93.6195ZM120.686 96.5616C119.785 96.4379 119.012 96.1482 118.368 95.6924C117.74 95.2247 117.277 94.6313 116.98 93.9122C116.697 93.1951 116.614 92.4066 116.732 91.5466L118.157 81.1649L119.904 81.4046L118.459 91.7835C118.345 92.6157 118.508 93.3306 118.949 93.928C119.406 94.5136 120.057 94.8643 120.903 94.9804C121.749 95.0965 122.464 94.9332 123.048 94.4904C123.647 94.0356 124.004 93.3921 124.118 92.5599L125.542 82.1782L127.29 82.418L125.845 92.7969C125.727 93.6568 125.428 94.393 124.948 95.0055C124.483 95.6199 123.877 96.0667 123.132 96.3461C122.403 96.6135 121.588 96.6853 120.686 96.5616ZM130.397 97.682L132.395 83.1184L133.81 83.3125L138.344 95.5292C138.387 95.6339 138.444 95.6772 138.517 95.6589C138.592 95.6269 138.63 95.5613 138.629 95.4623L138.592 94.037L139.947 84.1546L141.612 84.3829L139.614 98.9465L137.949 98.7181L133.62 87.1655C133.582 87.033 133.519 86.975 133.432 86.9913C133.359 87.0095 133.322 87.0751 133.321 87.1879L133.343 88.5688L132.061 97.9103L130.397 97.682ZM143.984 99.546L144.201 97.9649L146.697 98.3074L148.262 86.9062L145.765 86.5637L145.982 84.9825L152.702 85.9045L152.485 87.4857L149.988 87.1431L148.424 98.5443L150.921 98.8868L150.704 100.468L143.984 99.546ZM157.4 101.387L159.175 88.446L155.597 87.955L155.82 86.3322L164.724 87.5539L164.501 89.1767L160.902 88.6829L159.127 101.624L157.4 101.387ZM168.994 102.977L169.936 96.1118L166.811 87.8402L168.766 88.1085L170.681 93.7763L170.834 94.6664C170.852 94.7396 170.896 94.7809 170.965 94.7904C171.049 94.8018 171.102 94.7738 171.125 94.7064L171.513 93.8905L174.883 88.9477L176.839 89.216L171.601 96.3402L170.659 103.206L168.994 102.977Z" fill="white"/>
<!-- <path d="M93.7177 0.303684C93.3332 -0.0927136 92.7001 -0.102306 92.3037 0.282259L85.844 6.54908C85.4476 6.93364 85.4381 7.56673 85.8226 7.96313C86.2072 8.35953 86.8403 8.36912 87.2367 7.98455L92.9786 2.41405L98.5491 8.15595C98.9336 8.55235 99.5667 8.56194 99.9631 8.17738C100.36 7.79281 100.369 7.15972 99.9846 6.76333L93.7177 0.303684ZM92.9999 67.0151L93.9999 1.01515L92.0001 0.984848L91.0001 66.9849L92.9999 67.0151Z" fill="white"/> -->
</svg>
