<svg width="141" height="98" viewBox="0 0 141 98" fill="none" xmlns="http://www.w3.org/2000/svg">
<path d="M1.85782 92L1.85782 80.8H5.32982C6.30048 80.8 7.05248 81.0667 7.58582 81.6C8.12982 82.1227 8.40182 82.8693 8.40182 83.84C8.40182 84.4267 8.26315 84.9333 7.98582 85.36C7.71915 85.7867 7.35115 86.1067 6.88182 86.32C7.41515 86.512 7.83648 86.8427 8.14582 87.312C8.46582 87.7813 8.62582 88.3307 8.62582 88.96C8.62582 89.9307 8.33782 90.6827 7.76182 91.216C7.18582 91.7387 6.37515 92 5.32982 92H1.85782ZM3.10582 90.88H5.34582C5.99648 90.88 6.49782 90.7093 6.84982 90.368C7.20182 90.0267 7.37782 89.5573 7.37782 88.96C7.37782 88.3307 7.20182 87.84 6.84982 87.488C6.49782 87.1253 5.99648 86.944 5.34582 86.944H3.10582V90.88ZM3.10582 85.824H5.34582C5.92182 85.824 6.36448 85.648 6.67382 85.296C6.99382 84.944 7.15382 84.4587 7.15382 83.84C7.15382 83.2427 6.99382 82.7733 6.67382 82.432C6.36448 82.0907 5.92182 81.92 5.34582 81.92H3.10582L3.10582 85.824ZM15.4174 92.16C14.7241 92.16 14.1108 92.0213 13.5774 91.744C13.0548 91.456 12.6441 91.056 12.3454 90.544C12.0574 90.032 11.9134 89.4453 11.9134 88.784V80.8H13.2574L13.2414 88.784C13.2414 89.424 13.4388 89.9467 13.8334 90.352C14.2388 90.7467 14.7668 90.944 15.4174 90.944C16.0681 90.944 16.5908 90.7467 16.9854 90.352C17.3908 89.9467 17.5934 89.424 17.5934 88.784V80.8H18.9374L18.9214 88.784C18.9214 89.4453 18.7721 90.032 18.4734 90.544C18.1854 91.056 17.7748 91.456 17.2414 91.744C16.7188 92.0213 16.1108 92.16 15.4174 92.16ZM22.8634 92V80.8H24.1914V90.752H28.1754V92H22.8634ZM31.2178 92V80.8H32.5458V90.752H36.5298V92H31.2178ZM38.9322 92V90.784H40.8522V82.016H38.9322V80.8H44.1002V82.016H42.1802V90.784H44.1002V92H38.9322ZM49.9378 92.16C49.3191 92.16 48.7218 92.064 48.1458 91.872C47.5698 91.6693 47.0845 91.4027 46.6898 91.072L47.1698 89.952C47.5218 90.2613 47.9378 90.5013 48.4178 90.672C48.8978 90.8427 49.3831 90.928 49.8738 90.928C50.6311 90.928 51.2018 90.736 51.5858 90.352C51.9698 89.968 52.1618 89.472 52.1618 88.864C52.1618 88.352 52.0231 87.904 51.7458 87.52C51.4685 87.136 50.9938 86.9067 50.3218 86.832L49.5538 86.752C48.9565 86.688 48.4445 86.5333 48.0178 86.288C47.5911 86.0427 47.2658 85.712 47.0418 85.296C46.8178 84.8693 46.7058 84.368 46.7058 83.792C46.7058 83.184 46.8551 82.6453 47.1538 82.176C47.4525 81.696 47.8738 81.3227 48.4178 81.056C48.9725 80.7787 49.6285 80.64 50.3858 80.64C50.8551 80.64 51.3351 80.704 51.8258 80.832C52.3165 80.96 52.7751 81.1627 53.2018 81.44L52.8018 82.56C52.4178 82.2933 52.0178 82.1067 51.6018 82C51.1858 81.8933 50.7858 81.84 50.4018 81.84C49.6338 81.84 49.0418 82.016 48.6258 82.368C48.2205 82.7093 48.0178 83.1573 48.0178 83.712C48.0178 84.2773 48.1725 84.704 48.4818 84.992C48.7911 85.28 49.2018 85.4507 49.7138 85.504L50.4818 85.584C51.4525 85.6907 52.1885 86.032 52.6898 86.608C53.2018 87.184 53.4578 87.9093 53.4578 88.784C53.4578 89.424 53.3138 90 53.0258 90.512C52.7485 91.024 52.3485 91.4293 51.8258 91.728C51.3031 92.016 50.6738 92.16 49.9378 92.16ZM56.6247 92V80.8H57.9527V85.776H62.3367V80.8H63.6647V92H62.3367V87.024H57.9527V92H56.6247ZM72.9428 92V80.8H79.2148V82.048H74.2708V85.776H78.7988V87.024H74.2708V92H72.9428ZM85.8302 92.192C85.2542 92.192 84.7369 92.1067 84.2782 91.936C83.8302 91.7653 83.4462 91.5147 83.1262 91.184C82.9022 90.9493 82.6995 90.656 82.5182 90.304C82.3369 89.9413 82.1929 89.4507 82.0862 88.832C81.9902 88.2133 81.9422 87.4027 81.9422 86.4C81.9422 85.3973 81.9902 84.5867 82.0862 83.968C82.1929 83.3493 82.3369 82.8587 82.5182 82.496C82.6995 82.1333 82.9022 81.84 83.1262 81.616C83.4462 81.2853 83.8302 81.0347 84.2782 80.864C84.7369 80.6933 85.2542 80.608 85.8302 80.608C86.4062 80.608 86.9182 80.6933 87.3662 80.864C87.8249 81.0347 88.2142 81.2853 88.5342 81.616C88.7689 81.84 88.9715 82.1333 89.1422 82.496C89.3235 82.8587 89.4622 83.3493 89.5582 83.968C89.6649 84.5867 89.7182 85.3973 89.7182 86.4C89.7182 87.4027 89.6649 88.2133 89.5582 88.832C89.4622 89.4507 89.3235 89.9413 89.1422 90.304C88.9715 90.656 88.7689 90.9493 88.5342 91.184C88.2142 91.5147 87.8249 91.7653 87.3662 91.936C86.9182 92.1067 86.4062 92.192 85.8302 92.192ZM85.8302 90.944C86.6195 90.944 87.2169 90.7307 87.6222 90.304C88.0382 89.8773 88.2675 89.3013 88.3102 88.576C88.3422 88.1067 88.3635 87.712 88.3742 87.392C88.3955 87.0613 88.4062 86.7307 88.4062 86.4C88.4062 86.0587 88.3955 85.728 88.3742 85.408C88.3635 85.0773 88.3422 84.6827 88.3102 84.224C88.2675 83.4987 88.0382 82.9227 87.6222 82.496C87.2169 82.0693 86.6195 81.856 85.8302 81.856C85.0409 81.856 84.4382 82.0693 84.0222 82.496C83.6169 82.9227 83.3929 83.4987 83.3502 84.224C83.3182 84.6827 83.2915 85.0773 83.2702 85.408C83.2595 85.728 83.2542 86.0587 83.2542 86.4C83.2542 86.7307 83.2595 87.0613 83.2702 87.392C83.2915 87.712 83.3182 88.1067 83.3502 88.576C83.3929 89.3013 83.6169 89.8773 84.0222 90.304C84.4382 90.7307 85.0409 90.944 85.8302 90.944ZM93.2453 92V80.8H96.8933C97.9173 80.8 98.7173 81.0773 99.2933 81.632C99.88 82.1867 100.173 82.9707 100.173 83.984C100.173 84.7307 99.9866 85.3547 99.6133 85.856C99.24 86.3573 98.728 86.6987 98.0773 86.88C97.928 86.912 97.9066 87.0133 98.0133 87.184L98.4773 87.952L99.9493 92H98.5253L96.7173 87.024H94.5253V92H93.2453ZM94.5253 85.856H96.8933C97.5013 85.856 97.9813 85.696 98.3333 85.376C98.6853 85.0453 98.8613 84.5813 98.8613 83.984C98.8613 83.3227 98.6853 82.816 98.3333 82.464C97.9813 82.1013 97.5013 81.92 96.8933 81.92H94.5253V85.856ZM103.381 92V80.8H109.829V82.048H104.629V85.776H109.557V87.024H104.629V90.752H109.829V92H103.381ZM115.169 92L112.225 80.8H113.585L115.953 89.984L116.097 90.832C116.107 90.896 116.139 90.928 116.193 90.928C116.257 90.928 116.294 90.896 116.305 90.832L116.433 89.984L118.801 80.8H120.161L117.201 92H115.169ZM123.043 92V80.8H129.491V82.048H124.291V85.776H129.219V87.024H124.291V90.752H129.491V92H123.043ZM133.007 92V80.8H136.655C137.679 80.8 138.479 81.0773 139.055 81.632C139.641 82.1867 139.935 82.9707 139.935 83.984C139.935 84.7307 139.748 85.3547 139.375 85.856C139.001 86.3573 138.489 86.6987 137.839 86.88C137.689 86.912 137.668 87.0133 137.775 87.184L138.239 87.952L139.711 92H138.287L136.479 87.024H134.287V92H133.007ZM134.287 85.856H136.655C137.263 85.856 137.743 85.696 138.095 85.376C138.447 85.0453 138.623 84.5813 138.623 83.984C138.623 83.3227 138.447 82.816 138.095 82.464C137.743 82.1013 137.263 81.92 136.655 81.92H134.287V85.856Z" fill="white"/>
<!-- <path d="M52.6286 0.222264C52.1991 -0.124896 51.5694 -0.0581163 51.2223 0.37142L45.565 7.37109C45.2178 7.80062 45.2846 8.43025 45.7141 8.77741C46.1437 9.12457 46.7733 9.05779 47.1205 8.62826L52.1492 2.40633L58.3711 7.43501C58.8006 7.78217 59.4303 7.71539 59.7774 7.28586C60.1246 6.85632 60.0578 6.22669 59.6283 5.87953L52.6286 0.222264ZM59.9944 66.8945L52.9944 0.894536L51.0056 1.10547L58.0056 67.1055L59.9944 66.8945Z" fill="white"/> -->
</svg>
